<?xml version="1.0" encoding="utf-8"?>
<!-- Generator: Adobe Illustrator 24.0.2, SVG Export Plug-In . SVG Version: 6.00 Build 0)  -->
<svg version="1.1" id="_x3C_Layer_x3E_" xmlns="http://www.w3.org/2000/svg" xmlns:xlink="http://www.w3.org/1999/xlink" x="0px"
	 y="0px" viewBox="0 0 3865.82 1829.75" style="enable-background:new 0 0 3865.82 1829.75;" xml:space="preserve">
<style type="text/css">
	.st0{display:none;fill:#FFFFFF;}
	.st1{fill:#E9F3FE;}
	.st2{opacity:0.4;fill:#9FC1F4;}
	.st3{fill:#2C3A64;}
	.st4{fill:#ED985F;}
	.st5{fill:#739CF3;}
	.st6{fill:#35488B;}
	.st7{fill:#FFB27D;}
	.st8{fill:#B84C42;}
	.st9{fill:#D66C67;}
	.st10{fill:#D8DFEB;}
	.st11{fill:#F0D170;}
	.st12{fill:#9FC1F4;}
	.st13{fill:#163560;}
	.st14{fill:#C65447;}
	.st15{fill:#E49963;}
	.st16{fill:#F4BE61;}
	.st17{fill:#F2A83D;}
	.st18{fill:#EE9849;}
	.st19{fill:#D68D5D;}
	.st20{fill:#FFFFFF;}
	.st21{fill:#A86337;}
	.st22{fill:#DCE3F1;}
	.st23{fill:#E57970;}
	.st24{fill:#1C468A;}
	.st25{fill:#B77446;}
	.st26{fill:#2E3552;}
	.st27{opacity:0.6;fill:#D2E4FF;}
	.st28{fill:#8FB0E2;}
	.st29{fill:#365DA4;}
	.st30{fill:#285493;}
	.st31{fill:#80BDCC;}
	.st32{fill:#5F9AA8;}
	.st33{fill:#C7DEF9;}
	.st34{fill:#E58638;}
	.st35{fill:#CE6D25;}
	.st36{fill:#D38957;}
	.st37{fill:#2F5791;}
	.st38{fill:#B74B42;}
	.st39{fill:#C45446;}
	.st40{fill:#E37970;}
	.st41{fill:#ED975D;}
	.st42{fill:#466AA5;}
	.st43{fill:#699DEE;}
	.st44{fill:#3B76CA;}
	.st45{fill:#2B478B;}
	.st46{fill:#6BB7BF;}
	.st47{fill:#599DAD;}
	.st48{fill:#A53934;}
	.st49{fill:#233862;}
	.st50{fill:#B64C41;}
	.st51{fill:#2D427C;}
	.st52{fill:#EA8E50;}
	.st53{fill:#FFB07B;}
	.st54{fill:#DDE3F2;}
	.st55{opacity:0.2;fill:#E37970;}
	.st56{fill:#325384;}
	.st57{fill:#77A4E5;}
	.st58{fill:#7CACE5;}
</style>
<rect x="-147.57" y="-787.29" class="st0" width="3550" height="1420"/>
<g>
	<path class="st1" d="M3552.29,746.09c0.01,2.78,0.01,5.56-0.01,8.36c-0.42,48.26-7.29,97.54-19.26,145.44
		c-1.79,7.21-3.72,14.39-5.74,21.54c-32.5,114.5-93.49,218.88-163.82,279.38c-0.74,0.63-1.48,1.27-2.22,1.89l-363.01-0.35
		l-382.73-0.37l-2126.08-2.05c0,0-25.37-38.51-50.8-97.11c-0.95-2.19-1.9-4.39-2.84-6.64v-0.01c-3.77-8.9-7.51-18.22-11.15-27.91
		c-2.51-6.67-4.97-13.52-7.36-20.53c-0.36-1.05-0.72-2.12-1.08-3.2c-0.84-2.52-1.68-5.07-2.5-7.63c-0.29-0.84-0.55-1.69-0.82-2.55
		v-0.01c-3.95-12.45-7.61-25.31-10.86-38.51c-2.39-9.64-4.54-19.46-6.42-29.41c-6.5-34.4-9.7-70.4-7.33-106.34
		c0.37-5.59,0.87-11.19,1.52-16.77c5.7-49.35,22.59-98.13,56.51-142.09c21.91-28.41,50.94-54.79,88.67-78
		c42.66-26.25,83.9-38.82,125.83-46.24c116.36-20.61,238.01-1.59,409.95-125.42c11.47-8.26,23.18-17.16,35.12-26.76
		c79.83-64.14,155.85-117.58,228.41-161.66c0.9-0.55,1.79-1.09,2.69-1.63c215.73-128.79,375.33,51.07,538.47,58.26
		c281.82,12.41,288.41-161.8,809.59,34.93c0.02,0,0.04,0.01,0.06,0.02c10.48,3.96,21.18,8.07,32.09,12.33
		c38.92,15.21,78.13,25.02,116.93,30.72c7.75,1.14,15.49,2.08,23.22,2.8c34.32,3.19,68.67,2.15,103.34-4.2
		c209.95-38.52,353.69-12.94,446.86,49.07c3,2,5.95,4.03,8.85,6.11c18.04,12.9,34.08,27.23,48.22,42.78
		c32.06,35.25,54.41,76.7,68.51,121.76c4.2,13.42,7.67,27.15,10.45,41.15c2.27,11.42,4.08,23.01,5.46,34.74
		c1.92,16.46,2.98,33.15,3.23,50C3552.27,743.35,3552.28,744.72,3552.29,746.09z"/>
	<path class="st2" d="M1343.68,921.43H1084.4l-2.71-19.81c-0.06-0.44-0.19-0.85-0.36-1.25c1.68-30.42,8.54-55.35,9.75-73.06
		c2.81-9.59,0.99-15.13-1.61-18.29l2.14,0.32c-10.8-9.53-16.14-74.06-16.56-79.61c-0.07-0.86-0.19-1.78-0.38-2.73
		c-0.96-6.08-3.92-20.63-10.96-26.41L1034,702.7c0,0-11.44,5.45-19.91,30.57h0.01c-2.1,2.66-3.58,5.85-4.02,9.47
		c-1.39,11.28,5.75,15.61,5.75,15.61c-0.06-0.44-0.09-0.88-0.11-1.32c0.98,12.94,4.24,28.92,10.17,29.56c0,0,2.47,0.11,6.1-0.13
		c0.05,4-0.29,9.23-1.78,14.48c-0.64,0.11-1.29,0.23-1.94,0.35c0.01-0.02,0.02-0.04,0.02-0.04c-0.38,0.05-0.79,0.14-1.19,0.25
		c-0.04,0.01-0.07,0.01-0.11,0.02c-0.32,0.07-0.63,0.15-0.94,0.25c-1.82,0.46-3.83,1.24-5.54,1.83c0,0-19.12,5.22-46.87,50.77h-4.12
		c-0.53-0.23-1.07-0.47-1.58-0.73c-0.45-0.22-0.96-0.44-1.52-0.65l0.2-4.57l0.56-12.92l0.27-6.18h0.86l-0.55-4.17h-19.42l-0.8,4.17
		h0.86l0.38,6.18l0.8,12.92l0.16,2.54c-1.4,0.21-2.51,0.58-3.12,1.16c-0.53,0.5-0.76,1.29-0.7,2.24h-9.31l0.26-5.95l0.56-12.92
		l0.27-6.18h0.86l-0.55-4.17H918.6l-0.8,4.17h0.86l0.38,6.18l0.8,12.92l0.36,5.8c-0.83-0.11-1.68-0.23-2.53-0.36
		c-1.71-0.54-3.65-1.26-5.45-2.16c-4.71-2.36-17.29-3.93-19.96-1.42c-2.67,2.51,2.83,12.73,14.3,13.05
		c4.04,0.11,7.04,0.42,9.27,0.77c1.28,0.6,15.35,7.13,30.29,11.85c5.54,1.76,11.34,3.4,16.87,4.64c5.15,1.15,10.07,1.95,14.34,2.15
		c0,0,6.11-2.35,14.65-8.11c2.8,1.09,5.81,2.22,8.93,3.33l-1.42,16.6c-0.52,3.75-0.75,14.69-0.83,26.86H753.82
		c-1.45-10.21-3.77-22.75-4.24-27.92c-0.73-8.09-0.43-17.79,0.16-27.51c7.63-2.54,14.89-5.39,20.41-7.68
		c9.46,6.67,16.45,9.36,16.45,9.36c0.55-0.03,1.12-0.06,1.69-0.11c0.02,0,0.05,0,0.07-0.01c0.55-0.04,1.1-0.1,1.67-0.16
		c0.07-0.01,0.15-0.02,0.22-0.03c0.51-0.06,1.03-0.12,1.55-0.19c0.14-0.02,0.29-0.04,0.44-0.06c0.45-0.06,0.91-0.13,1.37-0.2
		c0.23-0.04,0.46-0.07,0.68-0.11c0.38-0.06,0.77-0.13,1.16-0.19c0.3-0.05,0.61-0.11,0.91-0.17c0.32-0.06,0.63-0.12,0.95-0.18
		c0.37-0.07,0.74-0.15,1.12-0.22c0.26-0.05,0.51-0.1,0.77-0.16c0.43-0.09,0.86-0.18,1.29-0.28c0.15-0.03,0.3-0.06,0.45-0.1
		c0.03-0.01,0.07-0.02,0.1-0.02c1.31-0.29,2.62-0.61,3.95-0.94c0.08-0.02,0.15-0.04,0.23-0.06c1.32-0.33,2.64-0.68,3.96-1.05
		c0.1-0.03,0.19-0.05,0.29-0.08c1.31-0.37,2.63-0.74,3.94-1.13c0.1-0.03,0.2-0.06,0.29-0.09c1.38-0.41,2.75-0.84,4.1-1.26
		c14.94-4.73,29.02-11.26,30.29-11.85c2.23-0.35,5.23-0.66,9.27-0.77c11.47-0.31,16.97-10.53,14.3-13.05
		c-2.67-2.51-15.25-0.94-19.96,1.42c-1.8,0.9-3.74,1.62-5.45,2.16c-16.39,2.37-29.06,3.05-37.42,3.81c0.59-1.71,0.51-3.2-0.32-3.98
		c-2.46-2.32-12.79-1.38-18.81,0.53c-29.29-40.12-49.73-52.88-49.73-52.88s-0.3-0.17-1.08-0.45c13.49-9.7-4.94-10.07-0.95-42.61
		c1.94-15.84-3.01-41.18-34.62-37.13c-31.61,4.05-41.57,35.12-35.2,48.93c6.38,13.81-9.18,17.14-14.06,32
		c-4.19,12.76-5.66,28.6-12.44,35.71c-18.79,19.69,10.2,48.48,35.14,51.5c0.05,2.52-0.02,5.13-0.24,7.87
		c-0.07,0.93-0.23,1.99-0.46,3.16c-1.75,8.96-7.59,24.38-11.31,36.18h-17.69c-6.3,0-11.45,5.15-11.45,11.45v256.48
		c0,6.3,5.15,11.45,11.45,11.45h696.63c6.3,0,11.45-5.15,11.45-11.45V932.88C1355.14,926.58,1349.98,921.43,1343.68,921.43z
		 M751.13,846.45c0.12-1.61,0.22-3.17,0.32-4.7c1.35,1.49,2.71,2.91,4.06,4.25C753.98,846.16,752.53,846.3,751.13,846.45z"/>
	<path class="st2" d="M2108.95,921.43H1925.3l-2.71-19.81c-0.06-0.44-0.19-0.85-0.36-1.25c1.68-30.42,8.54-55.35,9.75-73.06
		c2.81-9.59,0.99-15.13-1.61-18.29l2.14,0.32c-10.81-9.53-16.14-74.06-16.56-79.61c-0.07-0.86-0.19-1.78-0.38-2.73
		c-0.96-6.08-3.92-20.63-10.96-26.41l-29.71,2.11c0,0-11.44,5.45-19.91,30.57h0.01c-2.1,2.66-3.58,5.85-4.02,9.47
		c-1.39,11.28,5.75,15.61,5.75,15.61c-0.06-0.44-0.09-0.88-0.11-1.32c0.98,12.94,4.24,28.92,10.17,29.56c0,0,2.47,0.11,6.1-0.13
		c0.05,4-0.29,9.23-1.78,14.48c-0.64,0.11-1.29,0.23-1.94,0.35c0.01-0.02,0.02-0.04,0.02-0.04c-0.38,0.05-0.79,0.14-1.19,0.25
		c-0.04,0.01-0.07,0.01-0.11,0.02c-0.32,0.07-0.64,0.15-0.94,0.25c-1.82,0.46-3.83,1.24-5.54,1.83c0,0-19.12,5.22-46.87,50.77h-4.12
		c-0.53-0.23-1.06-0.47-1.58-0.73c-0.45-0.22-0.96-0.44-1.52-0.65l0.2-4.57l0.57-12.92l0.27-6.18h0.86l-0.55-4.17h-19.42l-0.8,4.17
		h0.86l0.38,6.18l0.8,12.92l0.16,2.54c-1.4,0.21-2.51,0.58-3.12,1.16c-0.53,0.5-0.76,1.29-0.7,2.24h-9.32l0.26-5.95l0.56-12.92
		l0.27-6.18h0.86l-0.55-4.17h-19.42l-0.8,4.17h0.86l0.35,5.69c-1.97,0.45-3.72,1-4.94,1.61c-1.8,0.9-3.74,1.62-5.45,2.16
		c-16.39,2.37-29.06,3.05-37.43,3.81c0.59-1.71,0.51-3.2-0.32-3.98c-2.46-2.32-12.79-1.38-18.81,0.53
		c-29.28-40.12-49.73-52.88-49.73-52.88s-0.3-0.17-1.08-0.45c13.49-9.7-4.94-10.07-0.95-42.61c1.94-15.84-3.01-41.18-34.62-37.13
		c-31.61,4.05-41.57,35.12-35.2,48.93c6.38,13.81-9.18,17.14-14.06,32c-4.19,12.76-5.66,28.6-12.44,35.71
		c-18.8,19.69,10.2,48.48,35.14,51.5c0.05,2.52-0.02,5.13-0.24,7.87c-0.08,0.93-0.23,1.99-0.46,3.16
		c-1.75,8.96-7.59,24.38-11.31,36.18h-106.09c-6.07,0-11.04,4.97-11.04,11.04v257.3c0,6.07,4.97,11.04,11.04,11.04h647.04
		c6.07,0,11.04-4.97,11.04-11.04v-257.3C2120,926.4,2115.03,921.43,2108.95,921.43z M1654.38,846.45c0.12-1.61,0.22-3.17,0.32-4.7
		c1.35,1.49,2.71,2.91,4.06,4.25C1657.24,846.16,1655.78,846.3,1654.38,846.45z M1657.07,921.43c-1.45-10.21-3.77-22.75-4.24-27.92
		c-0.74-8.09-0.43-17.79,0.16-27.51c7.63-2.54,14.89-5.39,20.41-7.68c9.46,6.67,16.45,9.36,16.45,9.36
		c0.55-0.03,1.12-0.06,1.69-0.11c0.02,0,0.05,0,0.07-0.01c0.55-0.04,1.1-0.1,1.67-0.16c0.07-0.01,0.15-0.02,0.22-0.03
		c0.51-0.06,1.03-0.12,1.55-0.19c0.14-0.02,0.29-0.04,0.44-0.06c0.45-0.06,0.91-0.13,1.37-0.2c0.22-0.04,0.46-0.07,0.68-0.11
		c0.38-0.06,0.77-0.13,1.16-0.19c0.3-0.05,0.61-0.11,0.91-0.17c0.31-0.06,0.63-0.12,0.95-0.18c0.37-0.07,0.74-0.15,1.12-0.22
		c0.26-0.05,0.51-0.1,0.77-0.16c0.43-0.09,0.86-0.18,1.29-0.28c0.15-0.03,0.3-0.06,0.45-0.1c0.03-0.01,0.07-0.02,0.1-0.02
		c1.3-0.29,2.62-0.61,3.95-0.94c0.08-0.02,0.15-0.04,0.23-0.06c1.32-0.33,2.64-0.68,3.96-1.05c0.1-0.03,0.19-0.05,0.29-0.08
		c1.31-0.37,2.63-0.74,3.94-1.13c0.1-0.03,0.2-0.06,0.29-0.09c1.38-0.41,2.75-0.84,4.1-1.26c4.51-1.43,8.93-3.02,12.96-4.56
		c2.23,3.38,6.84,6.84,13.44,7.02c4.04,0.11,7.04,0.42,9.27,0.77c1.28,0.6,15.35,7.13,30.29,11.85c5.54,1.76,11.34,3.4,16.87,4.64
		c5.15,1.15,10.07,1.95,14.34,2.15c0,0,6.11-2.35,14.65-8.11c2.8,1.09,5.81,2.22,8.93,3.33l-1.42,16.6
		c-0.52,3.75-0.75,14.69-0.83,26.86H1657.07z M1760.63,848.26c0.04,0,0.07-0.01,0.11-0.01l0.01,0.17l0.36,5.8
		c-0.84-0.11-1.68-0.23-2.53-0.36c-1.71-0.54-3.65-1.26-5.45-2.16c-1.11-0.55-2.66-1.06-4.4-1.49c1.43-0.64,2.35-1.07,2.64-1.2
		C1753.58,848.68,1756.59,848.37,1760.63,848.26z"/>
	<g>
		<path class="st3" d="M3197.57,706.86c-0.04-1.21-0.98-14.2-20.77-14.88c0,0,9.73,1.16,11.42,5.44c0,0-6.63-5.29-12.03-3.59
			c-5.4,1.7-8.57,11.16-8.6,14.27c-0.03,3.11,2.97,13.14,6.39,13.99c1.3,0.32,2.79,0.24,4.15,0c-0.91,1.42-1.81,2.99-2.66,4.75
			c-7.9,16.21,0.25,32.06,6.93,30.31c4.29-1.12,5.5,6.2,5.5,6.2l41.67-33.73C3229.58,729.61,3214.27,697.94,3197.57,706.86z"/>
		<path class="st4" d="M3299.8,892.65c0,0,12.13-0.47,14.15,1.55c2.02,2.02,1.01,12.14-2.78,15.42c-3.79,3.29-14.16-9.1-14.16-9.1
			L3299.8,892.65z"/>
		<path class="st4" d="M3218.12,801.21c0,0-14.35,7.38-13.45,27.48c0.9,20.09,28.16,55.3,41.84,63.66
			c10.84,6.62,52.08,8.43,52.08,8.43l1.2-8.13c0,0-38.53-15.65-43.95-21.67C3244.22,858.06,3228.86,796.76,3218.12,801.21z"/>
		<path class="st5" d="M3221.52,837.98c-0.2,0.55-0.43,1.1-0.69,1.65c-7.05,15.17-28.82,40.45-29.81,57.81
			c-0.34,5.99,0.41,13.53,2.87,23.4c12.1,48.63-83.49,7.2-78.08-5.39c10.75-25.03,25.75-60.75,25.75-60.75
			c-0.01-0.18-0.14-25.32-0.04-35.22v-0.25c0.01-0.46,0.01-0.9,0.02-1.31v-0.49c0.04-3.04,0.03-5.24-0.06-5.82
			c2.73-9.94,7.98-26.56,7.98-26.56c7.46-3.02,20.74-1.22,20.74-1.22c0.47,0.03,3.4,0.27,5.72,0.53c10.02,1.12,28.7,7.77,29.23,8.81
			c0.01,0.02,4.4,1.84,5.26,2.2c1.94,0.82,3.65,1.62,5.13,2.35c6.01,3,8.33,5.13,8.33,5.13
			C3216.69,807.51,3227.07,823.25,3221.52,837.98z"/>
		<path class="st6" d="M3192.04,909.54l-9.34,2.46l-0.01-0.1c-16.18,4.3-59.42-12.01-59.42-12.01s-15.68,13.78-13.62,46.81
			c1,16.12-2.92,18.21,1.82,17.45c13.65-2.19,61.73-0.04,61.86,0l0.56-2.38c1.28-0.15,2.37-0.28,3.07-0.4
			c2.42-0.4,4.77-0.71,6.99-0.94c6.79-0.7,12.34-0.69,14.9-0.63c0.81,0.01,1.46-0.68,1.39-1.49
			C3196.38,918.03,3192.04,909.54,3192.04,909.54z"/>
		<path class="st7" d="M3206.53,782.27c-1.21,4.84-2.08,9.52-1.38,10.89c-1.95,2.34-5.16,4.86-10.03,5.33
			c-9.5,0.93-19.2-14.15-19.2-14.15c3.41-1.77,9.52-10.42,13.06-24.86l1.19,0.56l20.08,9.44
			C3210.25,769.49,3208.1,776.01,3206.53,782.27z"/>
		<path class="st3" d="M3217.29,829.38c-0.04-0.5-1.25-1.2-3.24-2.04c0.58-5.32,1.31-14.79,1.49-29.62
			c-1.48-0.74-3.19-1.53-5.13-2.35c0.25,6.03,0.37,19.52-2.59,29.72c-7.79-2.55-18.72-5.5-26.2-7.42
			c-0.88-5.27-3.01-15.96-8.01-33.57l-5.7-0.51c0,0,6.88,18.25,6.85,32.36c-0.58-0.14-1.02-0.24-1.27-0.3
			c-3.7-0.79-5.26,14.69-5.58,15.57c-5.58,15.57-19.91,13.67-24.77,14.25c-4.87,0.58-33.78,60.17-34.06,70.73
			c-0.28,10.56,68.54,16.89,85.58,15.88C3211.7,931.08,3217.55,832.28,3217.29,829.38z"/>
		<path class="st4" d="M3210.24,769.49c0,0-2.13,6.53-3.71,12.78c-11.73-3.27-15.3-15.61-16.37-22.22L3210.24,769.49z"/>
		<path class="st7" d="M3212.72,776.4c0,0-28.07-6.5-23.76-23.92c4.32-17.42,3.6-29.99,21.7-26.58
			c18.11,3.41,19.93,10.92,19.9,17.08C3230.54,749.15,3220.13,777.64,3212.72,776.4z"/>
		<path class="st3" d="M3232.14,733.1c-3.02-6.31-6.57-5.98-8.79-4.86c-13.19-12.2-26.13-2.23-26.13-2.23
			c-4.98,12.03-15.77,16.94-15.77,16.94s4.31,4.42,16.81,4.32c3.82-0.03,7.66-1.78,11.15-4.2c-6.74,6.79-14.64,10.92-14.64,10.92
			c15.65-3,26.14-21.11,27.21-23.03c1.33,1.96,3.86,6.12,4.07,9.64c0.29,4.78-1.35,14.07,1.38,14.42
			C3227.44,755.02,3236.67,742.57,3232.14,733.1z"/>
		<path class="st7" d="M3242.09,905.83l-2.35,8.59c0,0-3.6-0.63-9.14-1.74c-0.03-0.01-0.07-0.02-0.11-0.03
			c-0.19-0.03-0.38-0.07-0.58-0.12c-3.48-0.71-7.67-1.59-12.18-2.63c-14.44-3.3-32.12-8.13-40.36-13.34
			c-15.17-9.62-36.66-63.55-37.68-86.05c-0.05-1.19-0.07-2.33-0.05-3.41c0.16-19.39,9.81-22.05,9.81-22.05
			c3.88-1.6,8.39,5.12,13.03,15.54c9.74,21.85,20.11,59.95,26.7,71.36c2.78,4.8,18.42,14.54,31.99,22.34
			c4.75,2.72,9.24,5.23,12.84,7.2C3238.86,904.14,3242.09,905.83,3242.09,905.83z"/>
		<path class="st5" d="M3162.48,800.59c-12.89-3.55-22.84,6.51-22.84,6.51c0.16-19.39,9.82-22.05,9.82-22.05
			C3153.34,783.44,3157.84,790.17,3162.48,800.59z"/>
		<path class="st5" d="M3223.86,802.85c0,0,6.76,11.79,7.77,14.82c0,0-8.77-0.34-12.3,6.41
			C3219.33,824.08,3219.63,804.55,3223.86,802.85z"/>
		<g>
			<path class="st8" d="M3279.11,930.85c22.23,0,40.25-18.02,40.25-40.25h-80.49C3238.86,912.83,3256.88,930.85,3279.11,930.85z"/>
			<path class="st9" d="M3284.74,925.96c-2.24,0.44-4.56,0.67-6.93,0.67c-19.84,0-35.92-16.08-35.92-35.92h13.86
				C3255.75,908.18,3268.22,922.74,3284.74,925.96z"/>
			<path class="st10" d="M3265.87,886.01c0,0-10.01-15.02-14.45-14c-4.44,1.02,7.85,7.74,12.29,13.32L3265.87,886.01z"/>
			<path class="st11" d="M3316.67,890.61h-75.14c2.08-1.84,6.6-4.73,13.98-4.26c0,0,7.63-0.8,11.72-3.87
				c4.1-3.07,16.39-4.33,23.1,0.91c6.72,5.24,14.23,3.87,18.32,4.55C3312.13,888.52,3315.35,889.01,3316.67,890.61z"/>
		</g>
		<path class="st7" d="M3269.83,914.17c-4.3,1.77-10.37,8.09-19.97,4.3c-8.11-3.2-16.75-5.23-19.25-5.78
			c-0.03-0.01-0.07-0.02-0.11-0.03c-0.31-0.06-0.51-0.11-0.58-0.12c-0.02-0.01-0.03-0.01-0.03-0.01l3.79-11.13
			c0,0,0.12,0.03,0.33,0.08c2.22,0.5,15.17,3.32,21.17,1.94c6.58-1.52,17.69,6.45,17.69,6.45S3274.12,912.4,3269.83,914.17z"/>
		<path class="st5" d="M3269.83,914.17c-4.3,1.77-10.37,8.09-19.97,4.3c-8.11-3.2-16.75-5.23-19.25-5.78
			c-0.03-0.01-0.07-0.02-0.11-0.03c-0.19-0.03-0.38-0.07-0.58-0.12c-3.48-0.71-7.67-1.59-12.18-2.63
			c3.93-6.13,3.79-12.63,3.43-15.62c4.75,2.72,9.24,5.23,12.84,7.2c2.22,0.5,15.17,3.32,21.17,1.94c6.58-1.52,17.69,6.45,17.69,6.45
			S3274.12,912.4,3269.83,914.17z"/>
	</g>
	<path class="st12" d="M2983.88,921.43c-5.66,0-10.28,4.97-10.28,11.04v257.3c0,6.08,4.62,11.04,10.28,11.04h379.57
		c18.96-16.3,37.23-35.79,54.44-57.79c6.86-8.75,13.55-17.91,20.03-27.43c1.39-2.03,2.76-4.07,4.13-6.13
		c10.8-16.29,21.05-33.56,30.63-51.63c2.79-5.26,5.52-10.59,8.19-15.97c7.04-14.2,13.67-28.82,19.84-43.8
		c0.06-0.13,0.12-0.26,0.16-0.4c4.42-10.72,8.6-21.64,12.52-32.69c5.08-14.29,9.72-28.83,13.89-43.53H2983.88z"/>
	<g>
		<path class="st13" d="M2623.87,717.57c0,0,1.85-3.8,11.12-2.76c9.27,1.04,11.88,9.37,12.31,14.92
			c0.34,4.46,3.85,46.93,10.81,68.44c1.61,4.98-2.61,9.92-7.79,9.14l-20.98-3.16L2623.87,717.57z"/>
		<path class="st14" d="M2621.19,718.24c0,0,9.89-3.34,15.09,1.61c5.2,4.94,2.26,11.48,2.26,11.48L2621.19,718.24z"/>
		<path class="st13" d="M2589.97,737.71c0,0,0.18-21.8,35.27-19.29c5.96,0.43,11.37,3.84,14.1,9.16c3.95,7.71,5.67,21.29-7.08,43.06
			L2589.97,737.71z"/>
		<path class="st15" d="M2634.39,801.72l-7.91,30.9l-22.84,1.12l-11.37-17.04c10.63-8.05,12.13-22.18,11.98-30.56
			c0-0.08,0-0.16,0-0.25c-0.09-3.94-0.54-6.56-0.54-6.56l16.21-4.94l12.34-3.76c-1.13,9.42-1.06,16.21-0.54,21
			C2632.51,799.14,2634.39,801.72,2634.39,801.72z"/>
		<path class="st15" d="M2657.44,961.54l-82.88-0.11c0,0,10.31-55.57,4.59-73.78c-5.72-18.21,0.28-44.82,0.28-44.82
			c8.33-19.77,10.45-38.29,14.15-39.26c2.04-0.54,3.68-1.63,5.67-2.03c32.56-6.5,59.03,5.34,59.03,5.34
			c7.31,18.35-8.34,32.14-9.1,73.58C2648.43,921.19,2657.44,961.54,2657.44,961.54z"/>
		<path class="st16" d="M2660.7,808.19c-3.96-7.34-25.73-7.46-25.73-7.46c-2.06,2.48-13.17,10.45-26.96,10.36
			c-13.79-0.08-7.47-9.83-7.47-9.83c-0.48,0.07-1,0.18-1.49,0.33c-2.93,0.94-5.02,2.98-6.43,4.89c0.09-1.81,0.14-2.87,0.14-2.87
			s-20.25,5.52-49.31,54.85c-0.86,1.46-3.31,1.22-9.02,0.12c-7.26-1.42-22.09-1.23-44.46-4.52c0,0-0.77,0.56-0.98,3
			c-0.46,5.4-1,7-1,7s14.73,6.94,30.4,11.9c5.54,1.76,11.34,3.4,16.87,4.64c5.15,1.15,10.07,1.95,14.34,2.15
			c0,0,11.56-4.44,25.08-16.1c-1.11,7.86-1.66,13.49-1.61,14.12c0.57,7.31-0.27,18.61-0.27,18.61s58.72,16.01,76.02,7.78
			c2.85-1.36,4.58-3.37,4.73-6.22c1.69-31.99,9.2-57.96,9.93-75.89C2663.76,818.23,2663.06,812.57,2660.7,808.19z"/>
		<path class="st17" d="M2635.77,843.17c10.51-3.27,21.03,5.02,20.31,16c-0.7,10.81-1.57,23.42-2.54,41.78
			c-0.15,2.85-1.88,4.87-4.73,6.22L2632,872.28L2635.77,843.17L2635.77,843.17z"/>
		<path class="st18" d="M2661.92,959.85l-7.98-58.23c-0.11-0.85-0.48-1.63-1-2.29c-10.05-12.66-11.1-52.21-11.12-67.3
			c0-3.24-2.54-5.84-5.68-5.88c0.22-0.68,6.29-19.25,10.97-24.32c0,0-1.56-0.24-2.08-0.32c-1.16-0.18-3.22-0.38-3.22-0.38
			s-8.65,12.22-12.47,25.05c0,0-0.08,0.03-0.24,0.05c-17.95,2.21-33.24,1.12-42.36-0.05h1.34c0,0,6.23-18.9,10.97-24.59
			c-1.99,0.4-4.34,1.35-6.29,2.02c-2.95,4.24-8.43,12.46-11.27,21.92c-2.17,0.15-3.99,1.91-4.19,4.23l-2.34,27.35l-3.21,37.47
			c-1.15,8.3-0.87,51.64-0.74,65.97c0.03,2.55,2.05,4.6,4.53,4.6h81.9C2660.19,965.14,2662.31,962.65,2661.92,959.85z"/>
		<path class="st19" d="M2631.71,791.65c-9.81-5.25-25.01-5.5-27.46-5.5c-0.22,0-0.34,0-0.34,0s0.12-0.09,0.33-0.25
			c1.62-1.2,8.91-6.56,15.67-11.49l12.34-3.76C2631.12,780.06,2631.19,786.86,2631.71,791.65z"/>
		<path class="st15" d="M2598.15,786.6c0,0,34.82,1.59,35.48-20.11c0.66-21.7,5.59-36.11-16.61-38.04
			c-22.2-1.93-26.78,6.22-28.76,13.41C2586.28,749.04,2589.11,785.62,2598.15,786.6z"/>
		<path class="st13" d="M2601.94,737.02c0,0-15.51,9.32-13.85,21.33c0,0-7.14-4.33-5.75-15.61c1.39-11.28,12.66-18.39,22.2-18.39
			s16.65,1.21,16.65,1.21L2601.94,737.02z"/>
		<path class="st13" d="M2599.05,733.24c-6.18,3.27,19.36,6.03,20.92,16.43c1.56,10.41,13.74,14.39,13.74,14.39
			S2649.16,706.7,2599.05,733.24z"/>
		<path class="st20" d="M2593.97,774.79c0,0,0.25,2.21,5.63,2.5c0,0,4.51,0.25,4.66-2.12
			C2604.26,775.17,2600.11,772.98,2593.97,774.79z"/>
		<path class="st16" d="M2547.76,866.84c0,0,23.83,11.97,44.48,16.92c5.94,1.42,11.67,2.43,16.56,2.66c0,0,22.22-6.83,39.17-30.58
			c32.75-45.87,7.47-50.82,7.47-50.82s-21.88,13.65-52.78,57.1c-1.08,1.52-3.8,1.18-10.82-0.24c-7.51-1.52-22.45-1.34-43.08-4.37
			c0,0-0.35,0.77-0.56,3.21C2547.74,866.13,2547.76,866.84,2547.76,866.84z"/>
		<path class="st21" d="M2534.43,858.57c-7.19-1.4-22.48-1.51-44.48-4.7c-1.71-0.54-3.66-1.26-5.46-2.16
			c-4.72-2.36-17.29-3.93-19.96-1.42c-2.67,2.51,2.83,12.73,14.3,13.05c4.02,0.11,7.03,0.41,9.26,0.76
			c1.21,0.57,15.32,7.12,30.3,11.86c5.54,1.76,11.34,3.4,16.87,4.64C2537.47,870.73,2535.94,863.03,2534.43,858.57z"/>
		<g>
			<g>
				<polygon class="st14" points="2539.71,829.33 2539.44,835.51 2538.88,848.43 2538.62,854.37 2522.22,854.37 2521.85,848.43 
					2521.04,835.51 2520.66,829.33 				"/>
				<polygon class="st22" points="2540.02,825.15 2520.6,825.15 2519.8,829.33 2540.57,829.33 				"/>
				<polygon class="st23" points="2539.44,835.51 2538.88,848.43 2521.85,848.43 2521.04,835.51 				"/>
			</g>
			<g>
				<polygon class="st14" points="2509.97,829.33 2509.7,835.51 2509.13,848.43 2508.87,854.37 2492.48,854.37 2492.11,848.43 
					2491.3,835.51 2490.92,829.33 				"/>
				<polygon class="st22" points="2510.28,825.15 2490.86,825.15 2490.06,829.33 2510.83,829.33 				"/>
				<polygon class="st23" points="2509.7,835.51 2509.13,848.43 2492.11,848.43 2491.3,835.51 				"/>
			</g>
			<path class="st24" d="M2553.89,858.7h-77.91c-1.2,0-2.16-0.97-2.16-2.16l0,0c0-1.2,0.97-2.16,2.16-2.16h77.91
				c1.2,0,2.16,0.97,2.16,2.16l0,0C2556.05,857.73,2555.08,858.7,2553.89,858.7z"/>
		</g>
		<path class="st25" d="M2592.25,883.76c-4.53-8.97-2.76-16.81-0.41-21.88c-7.51-1.52-22.55-2.17-43.18-5.2c0,0,0,0.02-0.01,0.03
			c-2.22-0.59-5.5-1.6-8.45-3.07c-5.03-2.52-18.46-4.2-21.31-1.51c-2.85,2.68,3.02,13.59,15.27,13.93
			c6.79,0.19,10.89,0.89,13.2,1.47C2549.31,868.43,2572.47,879.02,2592.25,883.76z"/>
		<path class="st18" d="M2606.26,702.7c0,0-11.44,5.45-19.91,30.57l12.71-0.03L2606.26,702.7z"/>
		<path class="st16" d="M2599.05,733.24c0,0,35.87,0.56,48.25-3.51c0,0-2.34-21.75-11.34-29.14l-29.71,2.11
			C2606.26,702.7,2597.28,724.2,2599.05,733.24z"/>
	</g>
	<path class="st12" d="M2915.94,921.43h-696.62c-6.3,0-11.45,5.15-11.45,11.45v256.48c0,6.3,5.15,11.45,11.45,11.45h696.62
		c6.3,0,11.45-5.15,11.45-11.45V932.88C2927.39,926.58,2922.24,921.43,2915.94,921.43z"/>
	<path class="st26" d="M3464.5,1205.7H353.04c-1.66,0-3.02-1.36-3.02-3.02l0,0c0-1.66,1.36-3.02,3.02-3.02H3464.5
		c1.66,0,3.02,1.36,3.02,3.02l0,0C3467.52,1204.34,3466.16,1205.7,3464.5,1205.7z"/>
	<path class="st27" d="M2717.19,367.06c-10.66-3.86-21.36-7.99-32.09-12.33c-0.02-0.01-0.04-0.02-0.06-0.02
		c-521.18-196.73-527.77-22.52-809.59-34.93c-163.15-7.19-322.75-187.05-538.47-58.26c-0.9,0.54-1.79,1.08-2.69,1.63v84.29
		c0,10.8,11.26,19.62,25.03,19.62h793.09v820.05c0,6.91,5.23,12.56,11.61,12.56c3.19,0,6.1-1.42,8.2-3.69
		c2.1-2.28,3.41-5.41,3.41-8.87V367.06H2717.19z"/>
	<g>
		<path class="st27" d="M2903.7,451.55h-652.18c-4.66,0-8.48,3.81-8.48,8.48v147.59c0,4.66,3.81,8.48,8.48,8.48h652.18
			c4.66,0,8.48-3.81,8.48-8.48V460.03C2912.17,455.37,2908.36,451.55,2903.7,451.55z"/>
		<g>
			<path class="st2" d="M2442.33,485.46h-144.8c-4.5,0-8.18,3.68-8.18,8.18c0,4.5,3.68,8.18,8.18,8.18h144.8
				c4.5,0,8.18-3.68,8.18-8.18C2450.51,489.14,2446.83,485.46,2442.33,485.46z"/>
			<path class="st2" d="M2442.33,525.64h-144.8c-4.5,0-8.18,3.68-8.18,8.18c0,4.5,3.68,8.18,8.18,8.18h144.8
				c4.5,0,8.18-3.68,8.18-8.18C2450.51,529.32,2446.83,525.64,2442.33,525.64z"/>
			<path class="st2" d="M2442.33,565.82h-144.8c-4.5,0-8.18,3.68-8.18,8.18c0,4.5,3.68,8.18,8.18,8.18h144.8
				c4.5,0,8.18-3.68,8.18-8.18C2450.51,569.5,2446.83,565.82,2442.33,565.82z"/>
			<path class="st2" d="M2659.76,485.46h-144.8c-4.5,0-8.18,3.68-8.18,8.18c0,4.5,3.68,8.18,8.18,8.18h144.8
				c4.5,0,8.18-3.68,8.18-8.18C2667.94,489.14,2664.26,485.46,2659.76,485.46z"/>
			<path class="st2" d="M2659.76,525.64h-144.8c-4.5,0-8.18,3.68-8.18,8.18c0,4.5,3.68,8.18,8.18,8.18h144.8
				c4.5,0,8.18-3.68,8.18-8.18C2667.94,529.32,2664.26,525.64,2659.76,525.64z"/>
			<path class="st2" d="M2659.76,565.82h-144.8c-4.5,0-8.18,3.68-8.18,8.18c0,4.5,3.68,8.18,8.18,8.18h144.8
				c4.5,0,8.18-3.68,8.18-8.18C2667.94,569.5,2664.26,565.82,2659.76,565.82z"/>
			<path class="st2" d="M2866.27,485.46h-154.82c-6.97,0-12.67,5.7-12.67,12.67v71.39c0,6.97,5.7,12.67,12.67,12.67h154.82
				c6.97,0,12.67-5.7,12.67-12.67v-71.39C2878.94,491.16,2873.24,485.46,2866.27,485.46z"/>
		</g>
	</g>
	<g>
		<path class="st27" d="M2076.51,451.55h-652.18c-4.66,0-8.48,3.81-8.48,8.48v147.59c0,4.66,3.81,8.48,8.48,8.48h652.18
			c4.66,0,8.48-3.81,8.48-8.48V460.03C2084.99,455.37,2081.17,451.55,2076.51,451.55z"/>
		<g>
			<path class="st2" d="M1615.14,485.46h-144.8c-4.5,0-8.18,3.68-8.18,8.18c0,4.5,3.68,8.18,8.18,8.18h144.8
				c4.5,0,8.18-3.68,8.18-8.18C1623.32,489.14,1619.64,485.46,1615.14,485.46z"/>
			<path class="st2" d="M1615.14,525.64h-144.8c-4.5,0-8.18,3.68-8.18,8.18c0,4.5,3.68,8.18,8.18,8.18h144.8
				c4.5,0,8.18-3.68,8.18-8.18C1623.32,529.32,1619.64,525.64,1615.14,525.64z"/>
			<path class="st2" d="M1615.14,565.82h-144.8c-4.5,0-8.18,3.68-8.18,8.18c0,4.5,3.68,8.18,8.18,8.18h144.8
				c4.5,0,8.18-3.68,8.18-8.18C1623.32,569.5,1619.64,565.82,1615.14,565.82z"/>
			<path class="st2" d="M1832.58,485.46h-144.8c-4.5,0-8.18,3.68-8.18,8.18c0,4.5,3.68,8.18,8.18,8.18h144.8
				c4.5,0,8.18-3.68,8.18-8.18C1840.76,489.14,1837.08,485.46,1832.58,485.46z"/>
			<path class="st2" d="M1832.58,525.64h-144.8c-4.5,0-8.18,3.68-8.18,8.18c0,4.5,3.68,8.18,8.18,8.18h144.8
				c4.5,0,8.18-3.68,8.18-8.18C1840.76,529.32,1837.08,525.64,1832.58,525.64z"/>
			<path class="st2" d="M1832.58,565.82h-144.8c-4.5,0-8.18,3.68-8.18,8.18c0,4.5,3.68,8.18,8.18,8.18h144.8
				c4.5,0,8.18-3.68,8.18-8.18C1840.76,569.5,1837.08,565.82,1832.58,565.82z"/>
			<path class="st2" d="M2039.09,485.46h-154.82c-6.97,0-12.67,5.7-12.67,12.67v71.39c0,6.97,5.7,12.67,12.67,12.67h154.82
				c6.97,0,12.67-5.7,12.67-12.67v-71.39C2051.76,491.16,2046.06,485.46,2039.09,485.46z"/>
		</g>
	</g>
	<path class="st27" d="M1329.94,460.03v147.59c0,4.66-3.82,8.48-8.48,8.48H669.28c-4.67,0-8.48-3.82-8.48-8.48v-30.65
		c116.36-20.61,238.01-1.59,409.95-125.42h250.71C1326.12,451.56,1329.94,455.37,1329.94,460.03z"/>
	<g>
		<path class="st27" d="M3533.11,616.09h-552.27c-3.98,0-7.24-3.81-7.24-8.47v-147.6c0-4.66,3.26-8.48,7.24-8.48h452.59
			c15.41,12.9,29.1,27.23,41.18,42.78C3501.98,529.58,3521.07,571.03,3533.11,616.09z"/>
		<g>
			<path class="st2" d="M3137.03,485.46h-122.51c-4.16,0-7.56,3.4-7.56,7.56v1.24c0,4.16,3.4,7.56,7.56,7.56h122.51
				c4.16,0,7.56-3.4,7.56-7.56v-1.24C3144.59,488.86,3141.19,485.46,3137.03,485.46z"/>
			<path class="st2" d="M3137.03,525.64h-122.51c-4.16,0-7.56,3.4-7.56,7.56v1.24c0,4.16,3.4,7.56,7.56,7.56h122.51
				c4.16,0,7.56-3.4,7.56-7.56v-1.24C3144.59,529.04,3141.19,525.64,3137.03,525.64z"/>
			<path class="st2" d="M3137.03,565.82h-122.51c-4.16,0-7.56,3.4-7.56,7.56v1.24c0,4.16,3.4,7.56,7.56,7.56h122.51
				c4.16,0,7.56-3.4,7.56-7.56v-1.24C3144.59,569.22,3141.19,565.82,3137.03,565.82z"/>
			<path class="st2" d="M3322.71,485.46H3200.2c-4.16,0-7.56,3.4-7.56,7.56v1.24c0,4.16,3.4,7.56,7.56,7.56h122.51
				c4.16,0,7.56-3.4,7.56-7.56v-1.24C3330.27,488.86,3326.87,485.46,3322.71,485.46z"/>
			<path class="st2" d="M3322.71,525.64H3200.2c-4.16,0-7.56,3.4-7.56,7.56v1.24c0,4.16,3.4,7.56,7.56,7.56h122.51
				c4.16,0,7.56-3.4,7.56-7.56v-1.24C3330.27,529.04,3326.87,525.64,3322.71,525.64z"/>
			<path class="st2" d="M3322.71,565.82H3200.2c-4.16,0-7.56,3.4-7.56,7.56v1.24c0,4.16,3.4,7.56,7.56,7.56h122.51
				c4.16,0,7.56-3.4,7.56-7.56v-1.24C3330.27,569.22,3326.87,565.82,3322.71,565.82z"/>
			<path class="st2" d="M3418.74,485.46h-42.88c-3.92,0-7.14,3.21-7.14,7.13v82.46c0,3.92,3.21,7.13,7.14,7.13h42.88
				c3.92,0,7.13-3.21,7.13-7.13v-82.46C3425.88,488.67,3422.66,485.46,3418.74,485.46z"/>
		</g>
	</g>
	<g>
		<polygon class="st12" points="2395.28,874.11 2452.63,874.11 2461.8,911.1 2405.11,911.1 		"/>
		<polygon class="st12" points="2410.71,886.07 2435.94,886.07 2445.61,921.9 2419.07,921.9 		"/>
		<polygon class="st28" points="2435.94,886.07 2437.65,886.07 2448.28,921.9 2445.39,921.9 		"/>
		<polygon class="st28" points="2452.63,874.11 2453.62,874.11 2462.91,911.1 2461.8,911.1 		"/>
	</g>
	<g>
		<polygon class="st12" points="2987.12,850.94 3072.26,850.94 3085.88,905.87 3001.71,905.87 		"/>
		<polygon class="st12" points="3010.02,868.71 3047.48,868.71 3061.84,921.9 3022.43,921.9 		"/>
		<polygon class="st28" points="3047.48,868.71 3050.02,868.71 3065.8,921.9 3061.51,921.9 		"/>
		<polygon class="st28" points="3072.26,850.94 3073.74,850.94 3087.52,905.87 3085.88,905.87 		"/>
	</g>
	<g>
		<path class="st25" d="M2323.64,1194.17c0.43,5.34,8.03,4.87,16.57,3.82c8.54-1.06,6.22,1.59,18.2,1.67
			c11.97,0.08,16.07-3.91,16.64-5.63c0.51-1.52-5.27-2.76-11.45-4.21c-0.78-0.18-1.56-0.37-2.34-0.56
			c-6.97-1.72-12.99-5.49-17.6-11.39c-5.19-6.66-9.94-36.96-9.94-36.96l-18.71,3.49c0,0,10.89,25.97,12.01,34.49
			c0.5,3.82-2.22,6.37-2.85,9.72C2323.82,1190.43,2323.48,1192.29,2323.64,1194.17z"/>
		<path class="st29" d="M2340.15,1198.45c3.4-0.83,6.29,1.13,18.26,1.2c11.97,0.08,16.07-3.91,16.64-5.63
			c0.51-1.52-5.27-2.76-11.45-4.21l-0.07,0.11c0,0-7.68,4.19-17.55,3.28c-8.04-0.75-16.27-4.04-21.82-4.6
			c-0.34,1.82-0.68,3.68-0.53,5.56C2324.07,1199.51,2330.01,1200.94,2340.15,1198.45z"/>
		<g>
			<path class="st29" d="M2340.37,1162.73c0,0-4.9,3.24-9.51,4.08c-6.91,1.26-10.12-0.14-10.12-0.14s-33.24-83.47-31.35-111.68
				c0.05-0.68,0.07-1.4,0.08-2.16c0.05-4.89-0.65-11.42-1.86-18.92c-0.45-2.75-0.96-5.63-1.54-8.62c-1.33-6.95-2.98-14.46-4.8-22.11
				c-0.79-3.37-1.63-6.77-2.47-10.16c-8.36-33.37-18.57-66.26-18.57-66.26s59.99-19.6,63.39-1.28c1.3,7.03,5.64,35.16,3.69,78.16
				c-1.58,34.62-0.56,61.62,2.43,92.96C2332.36,1124.13,2336.86,1147.8,2340.37,1162.73z"/>
		</g>
		<path class="st30" d="M2289.47,1052.83c0.05-4.89-0.65-11.42-1.86-18.92c-0.45-2.75-0.96-5.63-1.54-8.62
			c-1.33-6.95-2.98-14.46-4.8-22.11c-0.79-3.37-1.63-6.77-2.47-10.16c1.18-10.18,2.14-17.17,2.14-17.17
			S2305.85,1009.69,2289.47,1052.83z"/>
		<path class="st25" d="M2247.95,1194.17c0.43,5.34,7.97,5.34,16.51,4.28c8.54-1.06,6.29,1.13,18.26,1.2
			c11.97,0.08,16.07-3.91,16.64-5.63c0.51-1.52-5.27-2.76-11.45-4.21c-0.78-0.18-1.56-0.37-2.34-0.56
			c-6.97-1.72-11.61-6.89-17.6-11.39c-5.67-4.26-1.7-24.95-1.7-24.95l-17.59-6.28c0,0,2.65,20.8,2.65,32.26
			c0,3.86-2.22,6.37-2.85,9.72C2248.14,1190.43,2247.8,1192.29,2247.95,1194.17z"/>
		<path class="st29" d="M2264.47,1198.45c2-0.46,6.29,1.13,18.26,1.2c11.97,0.08,16.07-3.91,16.64-5.63
			c0.51-1.52-5.27-2.76-11.45-4.21l-0.07,0.11c0,0-7.68,4.19-17.55,3.28c-8.04-0.75-16.27-4.04-21.82-4.6
			c-0.34,1.82-0.68,3.68-0.53,5.56C2248.39,1199.51,2253.49,1201,2264.47,1198.45z"/>
		<path class="st29" d="M2296.37,920.23c0,0-19.52,97.28-22.82,150.22c-3.3,52.95-7.41,96.78-7.41,96.78s-4.26,1.54-9.15,1.26
			c-5.16-0.29-9.25-1.88-9.25-1.88s-19.35-79.66-12.94-111.54c6.41-31.89,1.07-61.3-2.01-87.74c-4.41-37.92,12.56-55.55,24.4-67.56
			C2269.19,887.59,2296.37,920.23,2296.37,920.23z"/>
		<path class="st13" d="M2310.2,742.06c1.94-15.84-3.01-41.18-34.62-37.13c-31.61,4.05-41.57,35.12-35.2,48.93
			c6.38,13.81-9.18,17.14-14.06,32c-4.2,12.76-5.66,28.6-12.44,35.72c-21.88,22.92,21.01,58.18,46.86,50.74
			c47.1-13.54,53.16-15.56,51.49-52.57c-0.86-18.96-15.61-26.31-6.24-31.79C2328.62,774.7,2305.81,777.9,2310.2,742.06z"/>
		<path class="st21" d="M2303.25,783.02c-0.48,0-4.27-1.16-10.62-1.77c-3.1-9.34-1.42-19.12-1.42-19.12l-23.52-7.16
			c-1.13,25.01-3.38,28.13-3.85,28.51c-4.87,1.16-10.07,2.77-15.58,5.01c0,0,15.02,85.91,8.57,102.3c-6.45,16.4-8.9,30.95-8.9,30.95
			l69.97,0.87c0,0-0.98-56.27,2.25-76.19S2303.25,783.02,2303.25,783.02z"/>
		<path class="st25" d="M2297.34,763.73c0,0-28.16,5.66-31.41-11.93c-3.25-17.59-9.07-28.7,8.76-33.06
			c17.84-4.35,22.58,1.71,25.1,7.32C2302.31,731.66,2304.59,761.8,2297.34,763.73z"/>
		<path class="st31" d="M2419.46,840.83c-0.21-2.45-0.98-3-0.98-3c-22.37,3.28-37.2,3.1-44.46,4.52c-5.71,1.11-8.04,1.26-9.02-0.12
			c-30.9-43.45-52.78-57.1-52.78-57.1s-2.33-1.39-11.46-2.64c0,0-1.31,16.52-9.8,17.93c-14.69,2.42-26.52-11.03-29.98-16.45
			c0,0-16.87,4.26-21.82,9.9c-3.56,4.05-3.09,13.76-2.04,19.86c0.34,1.94,0.73,3.51,1.07,4.42c1.04,2.76,4.99,23.02,6.8,31.08
			c0.04,0.21,0.08,0.39,0.12,0.57c0.13,0.54,0.24,1.01,0.34,1.41c0,0.01,0,0.02,0.01,0.03c0.1,0.43,0.19,0.77,0.26,0.98
			c0.04,0.13,0.08,0.26,0.13,0.39c0,0.01,0,0.02,0.01,0.03c2.6,8.29,4.17,16.75,3.25,27.12c-0.11,1.22-0.39,2.69-0.8,4.34
			c-2.35,12.05-12.11,35.8-14.14,46.71c1.17,2.46,3.82,4.41,7.04,5.96c4.2,2.03,9.37,3.38,13.48,4.32
			c3.18,0.73,8.08,1.55,13.73,2.19c3,0.34,6.2,0.62,9.47,0.81c0.46,0.03,0.92,0.05,1.38,0.08c21.08,1.05,44.68,0.53,47.76-9.49
			c1.47-4.81-4.4-33.72-5.19-42.31c-1.37-15.09,0.86-35.76,1.87-51.76c17.3,19.06,35.15,25.92,35.15,25.92
			c4.27-0.2,9.2-1,14.34-2.15c5.53-1.24,11.32-2.88,16.87-4.64c15.67-4.96,30.4-11.9,30.4-11.9S2419.92,846.23,2419.46,840.83z"/>
		<path class="st13" d="M2283.59,714.35c0,0,0.49,5.97-8.77,16.09c-9.26,10.12-7.05,28.17-7.05,28.17s-15.61-29.33-7.28-38.7
			C2268.81,710.54,2283.59,714.35,2283.59,714.35z"/>
		<path class="st13" d="M2272.26,706.58c0,0,14-4.68,27.89,9c5.98,5.9,5.08,17.49,1.87,24.21c0,0-4.92-14.41-13.88-17.56
			C2279.19,719.1,2272.26,706.58,2272.26,706.58z"/>
		<path class="st20" d="M2288.57,755.07c0,0,0.75,2.09,6.05,1.14c0,0,4.45-0.79,4.04-3.14
			C2298.67,753.08,2294.13,751.9,2288.57,755.07z"/>
		<path class="st32" d="M2294.23,911.85c-3.99,13.54-6.31,24.69-16.34,32.23c-3.27-0.19-6.48-0.47-9.47-0.81
			c-5.65-0.63-10.54-1.45-13.73-2.19c-4.11-0.94-9.28-2.3-13.48-4.32c-3.22-1.55-5.87-3.5-7.04-5.96
			c2.03-10.9,11.79-34.66,14.14-46.71c0.23-1.17,0.39-2.23,0.47-3.16c0.87-10.79-0.53-19.66-2.91-28.3c0-0.01-0.01-0.02-0.01-0.03
			c-0.13-0.46-0.26-0.92-0.39-1.38c0-0.01,0-0.02-0.01-0.03c-0.08-0.3-0.2-0.78-0.34-1.41c-0.04-0.17-0.08-0.36-0.12-0.57
			c-1.61-7.64-5.82-31.62-6.89-34.75c-0.34-0.99-0.72-2.69-1.05-4.78l8.42-8.11c0,0,48.33,20.64,58.98,49.11
			C2315.12,879.17,2299.96,892.42,2294.23,911.85z"/>
		<path class="st32" d="M2390.06,859.73c-10.7,3.39-22.34,6.37-31.21,6.79c0,0-18.09-6.95-35.5-26.3c-0.73-3.29-1.44-8.81,2.54-7.21
			c5.59,2.23,26.25,28.77,34.08,29.32C2365.57,862.73,2381.48,860.84,2390.06,859.73z"/>
		<path class="st31" d="M2351.89,852.17c0,0-23.83,11.97-44.48,16.92c-5.94,1.42-11.67,2.43-16.56,2.67c0,0-22.21-6.83-39.17-30.58
			c-32.75-45.87-7.47-50.82-7.47-50.82s21.88,13.65,52.78,57.1c1.08,1.52,3.8,1.18,10.82-0.24c7.51-1.52,22.45-1.34,43.08-4.37
			c0,0,0.35,0.77,0.56,3.21C2351.92,851.46,2351.89,852.17,2351.89,852.17z"/>
		<path class="st21" d="M2443.93,834.06c-2.67-2.51-15.25-0.94-19.96,1.42c-1.81,0.9-3.75,1.62-5.46,2.16
			c-22,3.19-37.29,3.3-44.48,4.7c-1.51,4.46-3.04,12.15-0.82,22.03c5.53-1.24,11.32-2.88,16.87-4.64
			c14.98-4.74,29.09-11.29,30.3-11.86c2.22-0.35,5.24-0.65,9.26-0.76C2441.1,846.79,2446.6,836.58,2443.93,834.06z"/>
		<path class="st25" d="M2380.77,837.47c-2.85-2.68-16.28-1.01-21.31,1.51c-2.95,1.47-6.23,2.48-8.45,3.07c0-0.01,0-0.03,0-0.03
			c-20.63,3.03-35.67,3.69-43.18,5.2c2.35,5.07,4.12,12.91-0.41,21.88c19.77-4.74,42.94-15.33,44.89-16.22
			c2.31-0.59,6.42-1.29,13.21-1.47C2377.75,851.06,2383.62,840.15,2380.77,837.47z"/>
	</g>
	<path class="st27" d="M3552.29,746.09c0.01,2.78,0.01,5.56-0.01,8.36c-0.42,48.26-7.29,97.54-19.26,145.44h-193.89
		c-5.85,0-10.63-5.7-10.63-12.67V704.64c0-6.97,4.78-12.67,10.63-12.67h209.89c1.92,16.46,2.98,33.15,3.23,50
		C3552.27,743.35,3552.28,744.72,3552.29,746.09z"/>
	<g>
		<path class="st33" d="M3515.91,750.89h-94.48l0.64-12.74h-1.72c-0.5-5.76-10.96-3.97-11.21,0h-2.05l0.82,12.74h-9.31l0.64-12.74
			h-1.72c-0.5-5.76-10.96-3.97-11.21,0h-2.05l0.82,12.74h-9.31l0.64-12.74h-1.72c-0.5-5.76-10.96-3.97-11.21,0h-2.05l0.82,12.74
			h-5.58c-1.94,0-3.53,1.59-3.53,3.53v1.54c0,1.94,1.59,3.53,3.53,3.53h159.25c1.94,0,3.53-1.59,3.53-3.53v-1.54
			C3519.44,752.48,3517.85,750.89,3515.91,750.89z"/>
		<path class="st33" d="M3515.91,824.08h-159.25c-1.94,0-3.53,1.59-3.53,3.53v1.54c0,1.94,1.59,3.53,3.53,3.53h159.25
			c1.94,0,3.53-1.59,3.53-3.53v-1.54C3519.44,825.67,3517.85,824.08,3515.91,824.08z"/>
		<path class="st33" d="M3414.73,803.11c-0.95-6.82-7.11-5.84-12.55-10.42c-5.45-4.57-15.64,3.87-23.69,6.69
			c-5.31,1.86-7.74,8-8.78,11.96h-8.28l3.32,12.74h54.72l2.61-12.74h-6.98C3415.2,809.27,3415.19,806.42,3414.73,803.11z"/>
		<path class="st33" d="M3489.59,803.11c-0.95-6.82-7.11-5.84-12.55-10.42c-5.45-4.57-15.64,3.87-23.69,6.69
			c-5.31,1.86-7.74,8-8.77,11.96h-8.28l3.32,12.74h54.72l2.61-12.74h-6.98C3490.06,809.27,3490.05,806.42,3489.59,803.11z"/>
		<path class="st33" d="M3494.33,750.83l2.61-12.74h-6.98c0.11-2.07,0.09-4.92-0.37-8.23c-0.95-6.82-7.11-5.84-12.55-10.42
			c-5.45-4.57-15.64,3.87-23.69,6.69c-5.31,1.86-7.74,8-8.77,11.96h-8.28l3.32,12.74H3494.33z"/>
		<path class="st33" d="M3515.91,876.61h-94.48l0.64-12.74h-1.72c-0.5-5.76-10.96-3.97-11.21,0h-2.05l0.82,12.74h-9.31l0.64-12.74
			h-1.72c-0.5-5.76-10.96-3.97-11.21,0h-2.05l0.82,12.74h-9.31l0.64-12.74h-1.72c-0.5-5.76-10.96-3.97-11.21,0h-2.05l0.82,12.74
			h-5.58c-1.94,0-3.53,1.59-3.53,3.53v1.54c0,1.94,1.59,3.53,3.53,3.53h159.25c1.94,0,3.53-1.59,3.53-3.53v-1.54
			C3519.44,878.2,3517.85,876.61,3515.91,876.61z"/>
		<path class="st33" d="M3489.59,855.59c-0.95-6.82-7.11-5.84-12.55-10.42c-5.45-4.58-15.64,3.87-23.69,6.69
			c-5.31,1.86-7.74,8-8.77,11.96h-8.28l3.32,12.74h54.72l2.61-12.74h-6.98C3490.06,861.75,3490.05,858.89,3489.59,855.59z"/>
	</g>
	<g>
		<g>
			<g>
				<path class="st18" d="M663.58,1002.19c-0.02,0-0.04,0-0.05,0c-2.04-0.03-3.67-1.51-3.64-3.32
					c2.08-128.79-47.73-227.81-48.23-228.79c-0.84-1.65-0.68-5.33,4.68-5.8c4.69-0.41,7.6,0.61,8.44,2.26
					c0.13,0.25,11.24,23.81,23.58,64.77c11.38,37.77,20.01,99.6,18.91,167.65C667.24,1000.76,665.59,1002.19,663.58,1002.19z"/>
			</g>
			<g>
				<path class="st18" d="M774.64,1002.19c-0.02,0-0.04,0-0.05,0c-2.04-0.03-3.67-1.51-3.64-3.32
					c2.07-128.79-47.73-227.81-48.23-228.79c-0.84-1.65-0.68-5.33,4.68-5.8c4.69-0.41,7.6,0.61,8.45,2.26
					c0.13,0.25,11.24,23.81,23.58,64.77c11.38,37.77,20.01,99.6,18.91,167.65C778.31,1000.76,776.66,1002.19,774.64,1002.19z"/>
			</g>
			<g>
				<path class="st18" d="M630.69,809.62c-1.77,0-3.33-1.13-3.64-2.72c-0.34-1.78,1.01-3.48,3.02-3.78
					c3.2-0.48,78.73-11.76,112.54-2.35c1.95,0.54,3.03,2.38,2.42,4.1c-0.61,1.73-2.68,2.69-4.63,2.14
					c-32.11-8.93-108.32,2.45-109.08,2.56C631.11,809.61,630.9,809.62,630.69,809.62z"/>
			</g>
			<g>
				<path class="st18" d="M639.33,831.31c-1.77,0-3.33-1.13-3.64-2.72c-0.34-1.78,1.01-3.48,3.02-3.78
					c3.2-0.48,78.73-11.76,112.54-2.35c1.95,0.54,3.03,2.38,2.42,4.11c-0.61,1.73-2.69,2.69-4.63,2.14
					c-32.13-8.94-108.32,2.45-109.08,2.56C639.74,831.3,639.53,831.31,639.33,831.31z"/>
			</g>
		</g>
		<path class="st18" d="M659.14,1002.2h227.61c0,0-5.3-21.99-137.12-18.72C656.35,985.8,659.14,1002.2,659.14,1002.2z"/>
		<g>
			<path class="st34" d="M640.62,1199.67c26.39-117.46,19.6-189.54,19.57-190.45c-0.07-1.81,3.72-3.45,5.76-3.51
				c2.06-0.03,11.17-0.53,12.23,1.01c1.38,2.03,6.7,90.84-32.64,192.95H640.62z"/>
		</g>
		<g>
			<path class="st34" d="M833.84,1199.67c-26.39-117.46-19.6-189.54-19.57-190.45c0.07-1.81-3.72-3.45-5.76-3.51
				c-2.07-0.03-11.17-0.53-12.23,1.01c-1.38,2.03-6.7,90.84,32.64,192.95H833.84z"/>
		</g>
		<g>
			<path class="st35" d="M895.25,1199.67c-26.39-117.46-19.6-189.54-19.57-190.45c0.07-1.81-3.72-3.45-5.76-3.51
				c-2.06-0.03-11.17-0.53-12.23,1.01c-1.38,2.03-6.7,90.84,32.64,192.95H895.25z"/>
		</g>
		<g>
			<path class="st35" d="M707.44,1199.67c26.39-117.46,19.61-189.54,19.57-190.45c-0.07-1.81,3.72-3.45,5.76-3.51
				c2.06-0.03,11.17-0.53,12.23,1.01c1.38,2.03,6.7,90.84-32.64,192.95H707.44z"/>
		</g>
		<path class="st34" d="M888.04,1009.21H658.12c-1.93,0-3.51-1.58-3.51-3.51l0,0c0-1.93,1.58-3.51,3.51-3.51h229.92
			c1.93,0,3.51,1.58,3.51,3.51l0,0C891.55,1007.63,889.97,1009.21,888.04,1009.21z"/>
	</g>
	<g>
		<g>
			<g>
				<path class="st18" d="M1657.34,1031.8c-0.02,0-0.03,0-0.05,0c-1.73-0.02-3.12-1.29-3.1-2.82c1.76-109.48-40.57-193.65-41-194.49
					c-0.71-1.4-0.58-4.53,3.98-4.93c3.99-0.35,6.46,0.52,7.18,1.92c0.11,0.21,9.55,20.24,20.04,55.06
					c9.67,32.1,17.01,84.67,16.08,142.51C1660.45,1030.58,1659.05,1031.8,1657.34,1031.8z"/>
			</g>
			<g>
				<path class="st18" d="M1751.75,1031.8c-0.02,0-0.03,0-0.05,0c-1.74-0.02-3.12-1.29-3.09-2.82
					c1.76-109.48-40.57-193.65-41-194.49c-0.72-1.4-0.58-4.53,3.98-4.93c3.99-0.35,6.46,0.52,7.18,1.92
					c0.11,0.21,9.55,20.24,20.04,55.06c9.67,32.1,17.01,84.67,16.08,142.51C1754.86,1030.58,1753.46,1031.8,1751.75,1031.8z"/>
			</g>
			<g>
				<path class="st18" d="M1629.38,868.11c-1.5,0-2.83-0.96-3.09-2.31c-0.29-1.52,0.86-2.96,2.57-3.21c2.72-0.41,66.93-10,95.67-2
					c1.65,0.46,2.58,2.02,2.06,3.49c-0.52,1.47-2.28,2.29-3.94,1.82c-27.3-7.59-92.08,2.08-92.73,2.18
					C1629.74,868.1,1629.56,868.11,1629.38,868.11z"/>
			</g>
			<g>
				<path class="st18" d="M1636.72,886.55c-1.5,0-2.83-0.96-3.09-2.32c-0.29-1.52,0.86-2.95,2.57-3.21c2.72-0.41,66.93-10,95.67-2
					c1.66,0.46,2.58,2.02,2.06,3.49c-0.52,1.47-2.28,2.29-3.94,1.82c-27.31-7.6-92.08,2.08-92.73,2.18
					C1637.08,886.53,1636.9,886.55,1636.72,886.55z"/>
			</g>
		</g>
		<path class="st18" d="M1653.57,1031.81h193.48c0,0-4.51-18.69-116.56-15.91C1651.19,1017.87,1653.57,1031.81,1653.57,1031.81z"/>
		<g>
			<path class="st34" d="M1637.82,1199.67c22.43-99.85,16.66-161.12,16.64-161.89c-0.06-1.54,3.17-2.93,4.9-2.98
				c1.75-0.03,9.5-0.45,10.39,0.86c1.17,1.72,5.69,77.22-27.74,164.02H1637.82z"/>
		</g>
		<g>
			<path class="st34" d="M1802.07,1199.67c-22.43-99.85-16.67-161.12-16.64-161.89c0.06-1.54-3.17-2.93-4.9-2.98
				c-1.75-0.03-9.5-0.45-10.39,0.86c-1.17,1.72-5.69,77.22,27.74,164.02H1802.07z"/>
		</g>
		<g>
			<path class="st35" d="M1854.27,1199.67c-22.43-99.85-16.67-161.12-16.64-161.89c0.06-1.54-3.17-2.93-4.9-2.98
				c-1.75-0.03-9.5-0.45-10.39,0.86c-1.17,1.72-5.69,77.22,27.74,164.02H1854.27z"/>
		</g>
		<g>
			<path class="st35" d="M1694.62,1199.67c22.43-99.85,16.67-161.12,16.64-161.89c-0.06-1.54,3.17-2.93,4.9-2.98
				c1.75-0.03,9.5-0.45,10.39,0.86c1.17,1.72,5.69,77.22-27.74,164.02H1694.62z"/>
		</g>
		<path class="st34" d="M1848.14,1037.77H1652.7c-1.64,0-2.98-1.34-2.98-2.98l0,0c0-1.64,1.34-2.98,2.98-2.98h195.44
			c1.64,0,2.98,1.34,2.98,2.98l0,0C1851.13,1036.43,1849.78,1037.77,1848.14,1037.77z"/>
	</g>
	<g>
		<g>
			<g>
				<path class="st18" d="M1555.33,1003.09c0.02,0,0.04,0,0.05,0c2.04-0.03,3.67-1.51,3.64-3.32
					c-2.07-128.79,47.73-227.81,48.23-228.79c0.84-1.65,0.68-5.33-4.68-5.8c-4.69-0.41-7.6,0.61-8.45,2.26
					c-0.13,0.25-11.24,23.82-23.58,64.77c-11.38,37.77-20.01,99.6-18.91,167.65C1551.67,1001.66,1553.31,1003.09,1555.33,1003.09z"
					/>
			</g>
			<g>
				<path class="st18" d="M1444.27,1003.09c0.02,0,0.04,0,0.05,0c2.04-0.03,3.67-1.51,3.64-3.32
					c-2.07-128.79,47.73-227.81,48.23-228.79c0.84-1.65,0.68-5.33-4.68-5.8c-4.69-0.41-7.6,0.61-8.45,2.26
					c-0.13,0.25-11.24,23.82-23.58,64.77c-11.38,37.77-20.01,99.6-18.91,167.65C1440.6,1001.66,1442.25,1003.09,1444.27,1003.09z"/>
			</g>
			<g>
				<path class="st18" d="M1588.22,810.52c1.77,0,3.33-1.13,3.64-2.72c0.34-1.78-1.01-3.48-3.02-3.78
					c-3.2-0.48-78.73-11.76-112.54-2.35c-1.95,0.54-3.03,2.38-2.42,4.1c0.61,1.73,2.68,2.69,4.63,2.14
					c32.11-8.93,108.32,2.45,109.08,2.56C1587.8,810.51,1588.01,810.52,1588.22,810.52z"/>
			</g>
			<g>
				<path class="st18" d="M1579.58,832.21c1.77,0,3.33-1.13,3.64-2.72c0.34-1.78-1.01-3.47-3.02-3.78
					c-3.2-0.48-78.73-11.76-112.54-2.35c-1.95,0.54-3.03,2.38-2.42,4.11c0.61,1.73,2.68,2.69,4.63,2.14
					c32.13-8.94,108.32,2.44,109.08,2.56C1579.17,832.2,1579.38,832.21,1579.58,832.21z"/>
			</g>
		</g>
		<path class="st18" d="M1559.77,1003.09h-227.61c0,0,5.3-21.99,137.12-18.71C1562.56,986.7,1559.77,1003.09,1559.77,1003.09z"/>
		<g>
			<path class="st34" d="M1578.29,1200.57c-26.39-117.46-19.6-189.55-19.57-190.45c0.07-1.81-3.72-3.45-5.76-3.51
				c-2.06-0.03-11.17-0.53-12.23,1.01c-1.38,2.03-6.7,90.84,32.64,192.95H1578.29z"/>
		</g>
		<g>
			<path class="st34" d="M1385.07,1200.57c26.39-117.46,19.6-189.55,19.57-190.45c-0.07-1.81,3.72-3.45,5.76-3.51
				c2.07-0.03,11.17-0.53,12.23,1.01c1.38,2.03,6.7,90.84-32.64,192.95H1385.07z"/>
		</g>
		<g>
			<path class="st35" d="M1323.66,1200.57c26.39-117.46,19.6-189.55,19.57-190.45c-0.07-1.81,3.72-3.45,5.76-3.51
				c2.06-0.03,11.17-0.53,12.23,1.01c1.38,2.03,6.7,90.84-32.64,192.95H1323.66z"/>
		</g>
		<g>
			<path class="st35" d="M1511.47,1200.57c-26.39-117.46-19.6-189.55-19.57-190.45c0.07-1.81-3.72-3.45-5.76-3.51
				c-2.06-0.03-11.17-0.53-12.23,1.01c-1.38,2.03-6.7,90.84,32.64,192.95H1511.47z"/>
		</g>
		<path class="st34" d="M1330.87,1010.11h229.92c1.93,0,3.51-1.58,3.51-3.51l0,0c0-1.93-1.58-3.51-3.51-3.51h-229.92
			c-1.93,0-3.51,1.58-3.51,3.51l0,0C1327.36,1008.53,1328.94,1010.11,1330.87,1010.11z"/>
	</g>
	<g>
		<path class="st15" d="M945.34,839.25c0,0,13.3-8.28,19.08-7.03c5.77,1.25,21.59,5.77,22.09,12.3c0.5,6.53-22.59,16.82-39.66,11.04
			C929.77,849.8,945.34,839.25,945.34,839.25z"/>
		<path class="st36" d="M874.79,1186.51c0.01,2.92,1.45,4.93,3.89,6.28c0.01,0.01,0.02,0.01,0.04,0.01
			c4.53,2.49,11.75,0.58,20.4,0.2c1.11-0.04,2.82,2.09,3.71,2.09c0.23,0,0.47,0,0.69,0.01c0.18,0,0.36,0.01,0.53,0.01
			c8.56,0.21,7.65,2.77,23.91,4.16c18.53,1.58,25.36-4.09,26.46-6.67c0.92-2.19-7.03-4.68-15.92-7.52
			c-0.43-0.14-0.86-0.28-1.29-0.41c-1.18-0.38-2.37-0.77-3.55-1.15c-10.58-3.52-21-7.69-23.59-18.4
			c-2.76-11.36,5.53-43.05,5.53-43.05l-29.37-3.17c0,0-2.83,33.13-4.68,43.46c-0.99,5.51-3.5,9.9-4.96,14.62
			c-0.11,0.33-0.2,0.66-0.29,0.99C875.53,1180.74,874.78,1183.58,874.79,1186.51z"/>
		<g>
			<path class="st37" d="M954.42,1192.6c-0.58,1.38-1.81,5.42-9.59,7.06h-29.48c-0.09-0.04-0.18-0.09-0.27-0.12
				c-9.71-4.32-17.47-4.81-23.59-4.91c-3.27-0.06-6.06,0.01-8.43-0.35h-0.01c-1.43-0.21-2.7-0.57-3.83-1.19c-0.01,0-0.01,0-0.01,0
				c-0.17-0.09-0.33-0.18-0.5-0.29c-0.01,0-0.03-0.01-0.04-0.01c-0.15-0.08-0.29-0.16-0.43-0.26h-0.01l-0.01-0.01
				c-0.27-0.16-0.52-0.34-0.76-0.52c-0.13-0.09-0.24-0.19-0.36-0.28c-0.11-0.1-0.23-0.2-0.33-0.31c-0.08-0.08-0.16-0.16-0.23-0.23
				c-0.13-0.14-0.26-0.3-0.39-0.45c-0.01-0.01-0.01-0.02-0.02-0.03c-0.07-0.09-0.14-0.18-0.21-0.28c-0.07-0.11-0.14-0.21-0.21-0.32
				c-0.01-0.01-0.01-0.02-0.02-0.03c-0.01-0.01-0.01-0.03-0.01-0.04c-0.06-0.09-0.11-0.18-0.16-0.28c-0.01,0-0.01-0.01-0.01-0.01
				c-0.04-0.06-0.06-0.13-0.09-0.19c-0.05-0.09-0.09-0.19-0.13-0.28c-0.06-0.13-0.11-0.28-0.16-0.42c-0.04-0.11-0.08-0.23-0.11-0.34
				c-0.04-0.15-0.08-0.3-0.11-0.46c-0.03-0.12-0.05-0.25-0.06-0.38c-0.01-0.08-0.03-0.17-0.04-0.26c-0.01-0.12-0.03-0.25-0.04-0.38
				c-0.01-0.18-0.02-0.36-0.02-0.54v-0.04c0-0.16,0-0.31,0.01-0.46c0-0.16,0.01-0.3,0.02-0.46c0.01-0.16,0.01-0.32,0.03-0.48
				c0.01-0.16,0.02-0.31,0.04-0.48c0.02-0.23,0.05-0.46,0.08-0.69c0.01-0.04,0.01-0.09,0.02-0.13c0.01-0.14,0.04-0.29,0.06-0.43
				c0.03-0.21,0.07-0.43,0.11-0.65c0.06-0.38,0.14-0.75,0.22-1.12c0.04-0.16,0.07-0.3,0.11-0.46c0.08-0.35,0.16-0.7,0.25-1.05
				c0.04-0.18,0.09-0.36,0.13-0.53c0.09-0.35,0.18-0.7,0.28-1.04c0.05-0.17,0.09-0.35,0.14-0.52c0.09-0.33,0.19-0.67,0.3-0.99
				c8.83,2.05,21.12,8.21,33.48,10.53c0.18,0.04,0.38,0.07,0.56,0.1c6.63,1.19,12.74,0.87,17.59,0.12c5.25-0.82,9-2.14,10.28-2.64
				C947.38,1187.93,955.33,1190.41,954.42,1192.6z"/>
			<polygon class="st37" points="891.49,1199.66 891.49,1197.49 891.49,1195.82 891.49,1194.64 891.49,1193.76 890.95,1193.68 
				877.74,1191.6 878.23,1192.53 878.24,1192.54 878.25,1192.54 878.57,1193.14 879.54,1194.96 879.55,1194.96 882.06,1199.66 			
				"/>
		</g>
		<path class="st38" d="M723.04,904.04l95.08-9.06c0,0,145.52,0.66,159.07,19.87c0,0,25.98,18.01-3.39,92.45
			c-29.37,74.44-63.86,148.83-63.86,148.83s-8.79,2.4-20.83,1.47c-4.76-0.37-11.17-2-11.17-2s6.63-111.08,21.32-154.3
			c14.68-43.22,19.2-34.82-6.78-32.42c-25.98,2.4-109.57,21.61-147.97,16.81C706.09,980.88,723.04,904.04,723.04,904.04z"/>
		<path class="st15" d="M856.46,1186.51c0.01,2.92,1.45,4.93,3.89,6.28c0.01,0.01,0.02,0.01,0.04,0.01
			c4.53,2.49,11.75,0.58,20.4,0.2c1.11-0.04,2.82,2.09,3.71,2.09c0.23,0,0.47,0,0.69,0.01c0.18,0,0.36,0.01,0.54,0.01
			c8.55,0.21,7.65,2.77,23.91,4.16c18.53,1.58,25.36-4.09,26.46-6.67c0.92-2.19-7.03-4.68-15.92-7.52
			c-0.43-0.14-0.86-0.28-1.29-0.41c-1.18-0.38-2.37-0.77-3.55-1.15c-10.58-3.52-21-7.69-23.59-18.4
			c-2.75-11.36,5.53-43.05,5.53-43.05l-29.37-3.17c0,0-2.83,33.13-4.68,43.46c-0.99,5.51-3.49,9.9-4.96,14.62
			c-0.11,0.33-0.2,0.66-0.29,0.99C857.21,1180.74,856.45,1183.58,856.46,1186.51z"/>
		<path class="st14" d="M709.75,910.79l89.16-7.53c0,0,145.52,0.64,159.07,19.24c0,0,21.99,13.77-7.38,85.87
			c-29.37,72.09-59.12,151.43-59.12,151.43s-6.59,0.9-14.56,0.26c-10.03-0.81-13.37-4.07-13.37-4.07s2.07-98.65,16.76-140.51
			c14.68-41.86,20.33-37.6-5.65-35.27c-25.98,2.33-99.03,20.54-149.37,10.9C687.28,983.83,709.75,910.79,709.75,910.79z"/>
		<g>
			<path class="st29" d="M936.16,1192.25c0,0.11-0.02,0.23-0.07,0.35c-0.54,1.28-1.64,4.86-8.02,6.68
				c-0.49,0.14-1.01,0.27-1.56,0.38h-29.48c-1.92-0.87-3.77-1.58-5.54-2.17c-4.43-1.48-8.4-2.19-11.94-2.53h-0.01
				c-2.3-0.23-4.42-0.3-6.38-0.33c-5.52-0.09-9.71,0.14-12.77-1.83c-0.01,0-0.03-0.01-0.04-0.01c-0.15-0.08-0.29-0.16-0.43-0.26
				h-0.01l-0.01-0.01c-0.27-0.17-0.53-0.34-0.76-0.52c-0.12-0.09-0.24-0.19-0.35-0.28c-0.12-0.1-0.23-0.2-0.33-0.31
				c-0.08-0.08-0.16-0.16-0.23-0.23c-0.07-0.08-0.15-0.17-0.23-0.26c-0.08-0.09-0.15-0.18-0.21-0.28c-0.04-0.06-0.09-0.11-0.12-0.16
				c-0.08-0.1-0.14-0.2-0.21-0.3c-0.06-0.09-0.11-0.18-0.16-0.28c-0.09-0.16-0.17-0.31-0.24-0.48c-0.01-0.01-0.01-0.02-0.01-0.03
				c-0.05-0.11-0.09-0.21-0.13-0.32c-0.03-0.08-0.06-0.16-0.09-0.24c-0.01-0.01-0.01-0.02-0.01-0.04c-0.01-0.01-0.01-0.03-0.01-0.04
				c-0.01-0.01-0.01-0.02-0.01-0.04c-0.04-0.1-0.06-0.21-0.09-0.3c-0.04-0.11-0.06-0.23-0.09-0.36c-0.03-0.12-0.05-0.25-0.06-0.38
				c-0.01-0.08-0.03-0.16-0.04-0.24c0-0.01,0-0.01,0-0.01c-0.01-0.12-0.03-0.25-0.04-0.38c-0.01-0.18-0.02-0.36-0.02-0.54
				c-0.01-2.92,0.75-5.76,1.5-8.53c0.08-0.33,0.18-0.67,0.29-0.99c4.79,1.11,10.61,3.44,16.9,5.7c5.3,1.9,10.93,3.77,16.59,4.83
				c7.18,1.36,13.79,0.95,18.89,0.1c4.87-0.82,8.33-2.04,9.55-2.52c2.87,0.92,5.64,1.8,8.04,2.64c0.46,0.16,0.91,0.33,1.34,0.48
				c0.41,0.16,0.82,0.3,1.2,0.45c0.38,0.15,0.75,0.3,1.1,0.45c0.18,0.07,0.35,0.15,0.52,0.22c0.16,0.07,0.33,0.14,0.49,0.22
				c0.31,0.14,0.61,0.29,0.88,0.43c0.14,0.07,0.27,0.14,0.4,0.21c0.26,0.14,0.49,0.28,0.7,0.43c0.16,0.11,0.32,0.22,0.46,0.33
				c0.1,0.09,0.19,0.16,0.27,0.24c0.05,0.04,0.09,0.08,0.13,0.13c0.18,0.18,0.31,0.38,0.38,0.57c0.02,0.05,0.04,0.1,0.05,0.15
				c0,0,0,0.01,0,0.01C936.16,1192.12,936.16,1192.19,936.16,1192.25z"/>
			<polygon class="st29" points="873.17,1193.76 873.17,1199.66 863.74,1199.66 859.92,1192.54 859.92,1192.54 859.91,1192.53 
				859.42,1191.6 872.63,1193.68 			"/>
		</g>
		<path class="st18" d="M951.83,856.46c-0.14,0.83-0.38,1.63-0.72,2.37c-3.76,8.28-82.08,18.83-91.87,13.55
			c-4.38-2.36-10.74-41.85-16.43-84.79c-7.04-53.09-13.07-111.47-13.07-111.47s32.51,10.26,36.27,27.58
			c3.77,17.32,4.52,124.26,14.31,129.53c9.79,5.27,51.21,0.75,65.52,3.01C945.84,836.24,953.33,848.09,951.83,856.46z"/>
		<path class="st13" d="M831.87,553.06c-6.09-4.89-14.92-4.28-20.61-3.94c1.46-1.51,4.35-2.06,4.35-2.06
			c-3.53-0.52-11.4,2.97-11.4,2.97s-29.82-15.27-43.63,23.89c0,0,2.38-2.96,5.65-6.32c-7.99,22.53,0.08,56.61,25.23,62.67
			C807.8,634.21,894.25,603.16,831.87,553.06z"/>
		<path class="st15" d="M832.07,684.74c0.16,0.07-15.77,8.34-27.75,5.07c-11.27-3.07-18.63-17.69-18.48-17.72
			c4.77-0.95,6.15-7.51,6.05-35.69l2.16,0.42l36.28,7.18c0,0-0.83,11.42-0.85,22.17C829.46,675.22,830.01,683.78,832.07,684.74z"/>
		<path class="st19" d="M830.33,644.01c0,0-0.83,11.42-0.85,22.17c-20.3-0.57-31.03-19.09-35.43-29.36L830.33,644.01z"/>
		<path class="st13" d="M790.31,632.88c0,0-10.64-16.81-13.19-31.19c-1.82-10.26,3.4-48.3,41.63-42.82c0,0,11.1,1.09,21.54,8.14
			c8.3,5.6,20.28,17.71,6.88,50.9l-3.48,11.21L790.31,632.88z"/>
		<path class="st15" d="M837.11,654.19c0,0-48.03,0.79-48.07-29.13c-0.03-29.92-6.25-49.97,24.41-51.74
			c30.67-1.77,36.64,9.64,39.08,19.62C854.98,602.93,849.61,653.22,837.11,654.19z"/>
		<path class="st13" d="M835.34,572.59c0,0-13.15,35.1-33.34,40.29c-20.18,5.19-28.94-0.22-28.94-0.22s15.48-12.3,18.69-33.77
			C791.76,578.9,825.42,555.89,835.34,572.59z"/>
		<path class="st34" d="M848.86,720.44c-0.84-3.41,6.35-5.97,8.11-2.94c3.3,5.69,3.95,12.86,5.27,18.58c3.77,16.32,0,38.66,0,38.66
			L848.86,720.44z"/>
		<path class="st13" d="M832.08,575.44c0,0,9.82,7.84,12.22,15.46c2.39,7.62,3.47,23.3,8.04,22.77c0,0,9.91-23.86-1.23-37.36
			C839.3,562,832.08,575.44,832.08,575.44z"/>
		<path class="st20" d="M826.44,636.06c0,0,0.89,3.8,10.35,3.21c0,0,7.94-0.49,7.7-4.67C844.48,634.6,836.79,631.63,826.44,636.06z"
			/>
		<path class="st34" d="M951.83,856.46c-0.14,0.83-0.38,1.63-0.72,2.37c-3.76,8.28-82.08,18.83-91.87,13.55
			c-4.38-2.36-12.06-51.46-6.53-95.39c5.92,25.12,7.72,76.65,21.59,79.07C890.02,858.82,931.29,853.57,951.83,856.46z"/>
		<path class="st18" d="M865.18,776.75c-19.47,93.85-3.18,108.25-13.29,117.48c-0.05,0.04-8.98,3.9-9.04,3.95
			c-10.54,9.14-10.81-1.94-43.94,12.43c-15.78,6.85-36.02,15.91-53.69,21.27c-6.66,2.01-12.95,3.51-18.5,4.16
			c-10.65,1.25-18.59-0.6-21.18-7.79c-7.53-20.9,28.62-76.4,19.58-114.27c-0.08-0.33-0.15-0.66-0.22-0.98
			c-0.66-3.31-0.78-7.12-0.44-11.29c1.69-21.13,15.03-51.84,28.86-78.06c15.26-28.92,31.11-52.39,32.53-51.55
			c40.26,23.89,43.9,4.03,43.9,4.03S871.82,744.74,865.18,776.75z"/>
		<path class="st34" d="M846.05,896.86C846,896.91,846.11,896.81,846.05,896.86c-10.54,9.14-14.01-0.62-47.14,13.74
			c-15.78,6.85-36.02,15.91-53.69,21.27c-9.03,1.57-15.75,2.96-18.5,4.16c-10.65,1.25-18.59-0.6-21.18-7.79
			c-7.53-20.9,28.62-76.4,19.58-114.27c-0.08-0.33-0.15-0.66-0.22-0.98c-0.78-3.74-0.88-7.48-0.44-11.29
			c1.91-16.06,13.71-33.47,27.09-58.84c8.95,9.45,76.14-1.51,60.25,91.88C806.92,863.36,841.88,874.65,846.05,896.86z"/>
		<g>
			<path class="st39" d="M959.88,854.76L959.88,854.76c2.9,3.29,7.13,5.37,11.84,5.37c8.68,0,15.79-7.1,15.79-15.79v-6.15
				c0-0.67-0.05-1.33-0.13-1.97h-31.32c-0.08,0.65,0.25,9.07,0.7,11.69C957.48,852.15,959.88,854.76,959.88,854.76z"/>
			<path class="st40" d="M984.81,836.22h-4.24c0.08,0.65,0.13,1.31,0.13,1.98v6.15c0,7.96-5.98,14.6-13.66,15.64
				c0.69,0.1,1.4,0.15,2.12,0.15c8.68,0,15.79-7.11,15.79-15.79v-6.15C984.94,837.53,984.9,836.87,984.81,836.22z"/>
			
				<rect x="965.29" y="858.75" transform="matrix(-1 -1.224647e-16 1.224647e-16 -1 1943.4601 1719.4381)" class="st39" width="12.89" height="1.93"/>
		</g>
		<path class="st15" d="M842.79,901.63c0,0,14.81-3.51,21.59-0.75c6.78,2.76,20.33,9.79,19.08,13.55
			c-1.25,3.77-17.32,5.77-24.1,2.01c-6.78-3.76-11.8,1-20.08-1.76C830.99,911.92,842.79,901.63,842.79,901.63z"/>
		<path class="st18" d="M785.85,672.09c0,0-54.63,0.73-64.42,27.09c-9.79,26.36-6.78,118.99,7.53,146.85s95.64,65.52,104.68,67.02
			c9.04,1.51,14.68-12.42,14.31-13.93c-0.38-1.51-85.47-70.41-85.1-77.57C763.22,814.4,785.85,672.09,785.85,672.09z"/>
	</g>
	<g>
		<path class="st41" d="M1198.29,781.48c0,0-13.96-16.91-16.96-18.91c-3-2-16.18-5.5-16.94-4.8c-0.75,0.71-0.79,1.73,0.84,3.17
			c1.63,1.44,7.87,5.08,6.98,5.49c-0.89,0.41-19.7-8.95-22.41-5.8c-2.71,3.15,1.54,16.15,8.78,22.38
			c7.25,6.23,28.88,8.89,30.24,9.76C1200.36,800.14,1198.29,781.48,1198.29,781.48z"/>
		<path class="st15" d="M1329.09,1187.04c-0.01,2.83-1.45,4.78-3.89,6.08c-0.01,0.01-0.02,0.01-0.04,0.01
			c-4.53,2.41-12.47,2.66-21.12,2.29c-1.11-0.04-2.1-0.07-2.99-0.07c-0.23,0-0.47,0-0.69,0.01c-0.18,0-0.36,0.01-0.53,0.01
			c-8.56,0.2-7.65,2.68-23.91,4.03c-18.53,1.53-25.36-3.96-26.46-6.46c-0.92-2.12,7.03-4.53,15.92-7.28c0.43-0.13,0.86-0.27,1.3-0.4
			c1.18-0.37,2.37-0.74,3.55-1.12c10.58-3.41,21-7.45,23.59-17.82c2.76-11-5.53-41.71-5.53-41.71l29.37-3.07
			c0,0,2.83,32.1,4.68,42.1c0.99,5.34,3.49,9.59,4.96,14.16c0.1,0.32,0.2,0.64,0.29,0.96
			C1328.34,1181.45,1329.1,1184.2,1329.09,1187.04z"/>
		<path class="st14" d="M1329.09,1187.04c-0.01,2.83-1.45,4.78-3.89,6.08c-0.01,0.01-0.02,0.01-0.04,0.01
			c-4.82,2.16-12.64,2.47-21.1,2.24c-1.11-0.03-2.1-0.04-3-0.02c-0.23,0-0.47,0-0.69,0.01c-0.18,0-0.36,0.01-0.53,0.01
			c-8.56,0.2-7.65,2.68-23.91,4.03c-18.53,1.53-25.36-3.96-26.46-6.46c-0.92-2.12,7.03-4.53,15.92-7.28
			c2.49,0.93,14.38,4.93,28.44,2.35c12.37-2.25,24.65-8.21,33.48-10.21c0.1,0.32,0.2,0.64,0.29,0.96
			C1328.34,1181.45,1329.1,1184.2,1329.09,1187.04z"/>
		<path class="st15" d="M1138.51,1151.66c-1.63,8.16-13.26,6.8-26.25,3.62c-12.99-3.17-9.9,0.6-28.39-1.45
			c-18.49-2.05-24.09-8.94-24.65-11.69c-0.5-2.44,8.63-3.3,18.43-4.43c1.23-0.14,2.47-0.29,3.71-0.44
			c11.06-1.39,19.16-8.53,29.21-14.39c9.52-5.55,23.72-28.18,23.72-28.18l25.35,2.01c0,0-13.3,20.21-18.45,28.99
			c-3.03,5.17-2.87,12-2.49,17.28C1138.9,1145.86,1139.09,1148.79,1138.51,1151.66z"/>
		<path class="st14" d="M1112.26,1155.29c-12.99-3.17-9.9,0.6-28.39-1.45c-18.49-2.05-24.09-8.94-24.65-11.69
			c-0.5-2.44,8.63-3.3,18.43-4.43l0.09,0.19c0,0,11.09,7.86,26.48,8.23c12.54,0.3,25.83-3.29,34.49-3.15
			c0.2,2.87,0.38,5.8-0.19,8.67C1136.88,1159.82,1125.25,1158.46,1112.26,1155.29z"/>
		<path class="st29" d="M1235.67,989.55l54.64,147.05c0,0,8.39,0.81,16.44-1.51c7.41-2.13,15.89-7.74,15.89-7.74
			s-13.56-141.19-38.41-170.56C1259.39,927.42,1235.67,989.55,1235.67,989.55z"/>
		<path class="st42" d="M1451.79,930.06c0,0-157.01-53.09-192.02-41.79c-35.02,11.3-140.15,220.47-140.15,220.47
			s2.37,3.16,8.85,5.59c6.02,2.26,20.61,2.11,20.61,2.11s94.88-81.33,106.18-105.05c11.3-23.72,15.81-46.31,27.11-44.05
			s145.71,55.35,176.21,23.72c30.5-31.63,22.52-72.72,22.52-72.72L1451.79,930.06z"/>
		<path class="st38" d="M1355.85,683.08c-2.51-5.18-5.31-14.37-6.68-30.76c0.21,1.63,3.04,22.3,10.99,34
			c32.65,21.44,95.24,93.02,94,106.59c0,0,22.05-37.39,22.42-37.61c0,0,40.67-51.71-7.53-81.33c-24.5-15.05-24.37-34.38-23.35-51.16
			c1.03-16.79-6.68-89.04-55.75-70.13c0,0-7.87-3.5-11.4-2.97c0,0,2.88,0.55,4.35,2.06c-5.69-0.34-13.82,0.08-20.61,3.94
			C1344.29,565.92,1328.2,657.63,1355.85,683.08z"/>
		<path class="st15" d="M1362.08,687.39c-0.16,0.07,15.77,8.34,27.75,5.07c11.27-3.07,18.63-17.69,18.48-17.72
			c-4.77-0.95-6.15-7.51-6.05-35.69l-2.16,0.42l-36.28,7.18c0,0,0.83,11.42,0.85,22.17C1364.7,677.86,1364.15,686.42,1362.08,687.39
			z"/>
		<path class="st19" d="M1363.82,646.65c0,0,0.83,11.42,0.85,22.17c20.3-0.57,31.03-19.09,35.43-29.36L1363.82,646.65z"/>
		<path class="st38" d="M1403.85,635.52c0,0,10.64-16.81,13.19-31.18c1.82-10.26-3.4-48.3-41.63-42.82c0,0-11.1,1.09-21.54,8.14
			c-8.3,5.61-20.28,17.71-6.88,50.9l3.48,11.21L1403.85,635.52z"/>
		<path class="st15" d="M1357.04,656.84c0,0,48.03,0.79,48.07-29.13s6.26-49.97-24.41-51.74c-30.67-1.77-36.64,9.64-39.08,19.62
			C1339.18,605.58,1344.55,655.86,1357.04,656.84z"/>
		<path class="st38" d="M1358.82,575.24c0,0,13.15,35.1,33.33,40.29c20.18,5.19,28.94-0.22,28.94-0.22s-15.48-12.3-18.69-33.77
			C1402.4,581.54,1368.74,558.53,1358.82,575.24z"/>
		<path class="st38" d="M1362.08,578.09c0,0-9.82,7.84-12.22,15.46c-2.39,7.62-3.47,23.3-8.04,22.77c0,0-9.91-23.86,1.23-37.36
			C1354.85,564.64,1362.08,578.09,1362.08,578.09z"/>
		<path class="st43" d="M1469.04,816.61c4.74-19.87-11.38-58.42-28.2-90.33c-15.26-28.93-31.11-52.39-32.53-51.55
			c-40.26,23.9-43.9,4.03-43.9,4.03s-36.57,4.86-46.92,22.68c-14.32,24.65-29.92,98.62-45.25,97.52
			c-7.03-0.5-77.82-27.11-77.82-27.11s-11.79,11.05-9.53,24.6c0,0,34.95,23.41,64.51,38.34c15.63,7.9,29.76,13.43,36.4,11.86
			c13.46-3.17,34.5-34.38,45.86-52.76c0.03-0.04,0.05-0.08,0.08-0.12c14.5,82.11-5.22,100.8,4.77,109.46
			c10.54,9.14,25.6-4.35,58.74,10.01c21.73,9.43,51.89,23.06,72.2,25.43c10.65,1.25,18.59-0.6,21.18-7.8
			C1496.15,909.99,1460.01,854.49,1469.04,816.61z"/>
		<path class="st20" d="M1367.72,638.7c0,0-0.9,3.8-10.35,3.21c0,0-7.94-0.49-7.7-4.67C1349.67,637.25,1357.37,634.27,1367.72,638.7
			z"/>
		<path class="st44" d="M1488.62,930.89c-2.59,7.19-10.54,9.05-21.18,7.8c-14.05-6.12-74.76-29.64-74.08-45.58
			c1.01-23.59,11.67-24.35,4.14-53.47c-6.05-23.38,50.04-66.86,58.99-76.31c16.82,31.92,17.29,33.42,12.55,53.29
			C1460.01,854.49,1496.15,909.99,1488.62,930.89z"/>
		<path class="st44" d="M1331.66,793.9c-11.36,18.38-32.4,49.59-45.86,52.76c-6.64,1.57-20.77-3.96-36.4-11.86
			c11.41,2.94,22.49,2.86,33.26,1.82c11.67-1.13,15.06-15.44,33.51-36.9C1328.14,785.81,1331.07,789.31,1331.66,793.9z"/>
		<g>
			<path class="st39" d="M1370.73,837.33c-1.48-0.91-4.36-0.56-6.45-0.12v-3.02c0-0.67-0.05-1.33-0.13-1.97h-31.32
				c-0.08,0.65-0.13,1.3-0.13,1.97v6.15c0,8.68,7.1,15.79,15.79,15.79c4.7,0,8.94-2.09,11.84-5.38l0,0c0,0,7.45-1.83,9.79-4.61
				C1372.46,843.36,1373.22,838.86,1370.73,837.33z M1369.08,843.01c-0.79,2.04-4.34,3.14-6.1,3.57c0.7-1.61,1.14-3.36,1.26-5.2
				c1.08-1.48,2.79-2.35,4.04-2.12C1369.41,839.47,1370.08,840.43,1369.08,843.01z"/>
			<path class="st40" d="M1335.27,834.19v6.15c0,8.68,7.1,15.79,15.78,15.79c0.72,0,1.43-0.05,2.12-0.15
				c-7.69-1.04-13.66-7.67-13.66-15.64v-6.15c0-0.67,0.05-1.33,0.13-1.97h-4.24C1335.32,832.86,1335.27,833.52,1335.27,834.19z"/>
			<rect x="1342.04" y="854.74" class="st39" width="12.89" height="1.93"/>
		</g>
		<path class="st15" d="M1387.9,839.07c0,0-10.17-7.91-19.77-6.02c-9.6,1.88-14.31,8.47-13.93,11.48
			c0.38,3.01,5.46,11.49,12.8,12.24c7.34,0.75,28.24-4.52,28.24-4.52L1387.9,839.07z"/>
		<path class="st43" d="M1408.31,674.74c0,0,39.15,2.41,52.7,21.31c19.08,26.61,52.21,135.24,43.18,160.09
			c0,0-37.16,3.91-63.71,3.91c-13.85,0-55.4-4.42-55.4-4.42s-2.89-13.49,1.13-20.02c4.02-6.53,69.28-17.07,72.3-20.08
			c3.01-3.01-37.65-58.74-37.65-67.78C1420.85,738.72,1408.31,674.74,1408.31,674.74z"/>
	</g>
	<path class="st45" d="M1390.12,866.13H857.54c-5.68,0-10.33,4.65-10.33,10.33v13.47c0,5.68,4.65,10.33,10.33,10.33h257.33v260.94
		c-45.28,1.81-83.83,17.35-99.55,38.47h216.31c-15.61-21.21-53.57-36.65-98.85-38.47V900.26h257.33c5.68,0,10.33-4.65,10.33-10.33
		v-13.47C1400.45,870.77,1395.8,866.13,1390.12,866.13z"/>
	<path class="st45" d="M2171.22,908.1h-355.89c-4.35,0-7.92,3.56-7.92,7.91v14.01c0,4.35,3.56,7.91,7.92,7.91h170.12v228.1
		c-39.51,1.57-72.67,14.98-86.41,33.45l188.48,0.18c-13.64-18.54-46.83-32.03-86.41-33.63v-228.1h170.12c4.35,0,7.92-3.56,7.92-7.91
		v-14.01C2179.14,911.66,2175.58,908.1,2171.22,908.1z"/>
	<g>
		<path class="st46" d="M623.1,809.04c-13.65,3.42-101.17,2.28-98.9,13.65c2.28,11.37,61.39,29.56,94.35,19.32
			c0,0-36.38,89.8-84.12,85.26c-47.74-4.55-62.51-34.1-92.08-36.38c-29.55-2.27-51.14,5.68-36.37,13.64
			c14.77,7.96,64.79,2.62,88.66,22.9c23.88,20.3,43.2,32.81-1.13,41.9c-27.01,5.54-67.11,5.6-97.91-2.91
			c-6.5-34.4-9.7-70.4-7.33-106.34c0.37-5.59,0.87-11.19,1.52-16.77c5.7-49.35,22.59-98.13,56.51-142.09
			c19.02-6.13,37.43-10.41,49.48-9.25c0,0-55.71,94.35-37.51,92.08c18.18-2.28,80.7-97.77,80.7-97.77s92.07-17.04,106.85,37.52
			C660.61,778.36,636.74,805.64,623.1,809.04z"/>
		<g>
			<path class="st47" d="M603.49,740.94c-116.95,47.34-180.85,87.57-215.22,119.14c0.37-5.59,0.87-11.19,1.52-16.77
				C466.21,786.25,596.71,743.15,603.49,740.94z"/>
		</g>
	</g>
	<g>
		<path class="st47" d="M412.88,1034.34c-3.95-12.45-7.61-25.31-10.86-38.51c0.53-0.57,0.82-0.89,0.82-0.89s39.26,14.17,48.58,25.69
			C451.42,1020.63,417.58,1029.03,412.88,1034.34z"/>
		<path class="st47" d="M485.94,1074.8c-11.96,20.44-27.13,21.3-32.14,18.24c-4.03-2.47-21.14-20.01-29.16-24.78
			c-2.51-6.67-4.97-13.52-7.36-20.53c-0.36-1.05-0.72-2.12-1.08-3.2c-0.84-2.52-1.68-5.07-2.5-7.63c8.52,3.65,52.09-5.02,52.09-5.02
			S497.91,1054.38,485.94,1074.8z"/>
		<g>
			<path class="st47" d="M468.34,1067.15c-19.85-8.6-36.71-14.91-51.06-19.42c-0.36-1.05-0.72-2.12-1.08-3.2
				C443.01,1054.16,466.16,1066.03,468.34,1067.15z"/>
		</g>
	</g>
	<g>
		<path class="st48" d="M1927.03,1154.99c0,0,21.18,21.15,26.43,26.34c5.25,5.19,24.95,2.9,30.37,18.19h-53.69
			c0,0-13.3-9.71-33.98-9.23c0,0-3.94-14.62,0-20.28c3.94-5.66,5.39-15.02,5.39-15.02H1927.03z"/>
		<path class="st48" d="M1896.16,1190.3l2.71,9.23h18.96v-7.82C1917.83,1191.71,1907.24,1188.41,1896.16,1190.3z"/>
		<path class="st49" d="M1894.41,998.67c0,0-0.99,100.34,7.14,156.33h25.49l17.98-105.72L1894.41,998.67z"/>
		<path class="st29" d="M2002.48,1154.99H1977c0,0-0.01-0.01-0.02-0.01c-1.22-1.26-79.35-82.25-91.54-133.12
			c0,0-7.3-0.66-16.08-0.27c-2.56,0.12-5.25,0.32-7.92,0.65c-11.82,1.48-166.71,7.14-174.84-0.98c-8.13-8.13-4.87-54.92-4.87-54.92
			l15.23-8.07l16.09-8.53c0,0,178.64,2.81,197.26,16.84C1928.92,980.62,1972.56,1074.08,2002.48,1154.99z"/>
		<path class="st50" d="M2002.48,1154.99c0,0,21.18,21.22,26.43,26.42c5.25,5.2,24.95,2.91,30.37,18.25h-53.68
			c0,0-13.3-9.73-33.98-9.26c0,0-3.94-14.67,0-20.34c3.94-5.68,5.39-15.07,5.39-15.07H2002.48z"/>
		<path class="st50" d="M1971.61,1190.3l2.71,9.23h18.96v-7.82C1993.28,1191.71,1982.69,1188.41,1971.61,1190.3z"/>
		<path class="st51" d="M1869.35,1021.58c-2.56,0.12-5.25,0.32-7.92,0.65c-11.82,1.48-166.71,7.14-174.84-0.98
			c-8.13-8.13-4.87-54.92-4.87-54.92l15.23-8.07l25.59,10.85C1722.54,969.11,1718.75,1017.42,1869.35,1021.58z"/>
		<path class="st52" d="M1871.31,889.83c-3.33-9.96-12.52-10.37-12.52-10.37s-8.82-0.64-15.17,1.22
			c-6.35,1.86-16.91-1.82-16.91-1.82s-38.72-13.46-47.77-19.09c-19.42-12.09-54.54-90.43-66.49-80.88c0,0-15.45,14.58-6.97,39.66
			c8.48,25.08,42.03,59.6,62.38,65.17c15.04,4.12,54.34,6.31,59.56,6.59c6.49,0.84,15.3,4.59,17.65,4.77
			c2.61,0.2,8.41-3.66,12.43-3.09C1872.16,894.06,1871.31,889.83,1871.31,889.83z"/>
		<path class="st53" d="M1719.38,779.8c-16.04,0.23-33.82-1.44-49.02-3.45c2.8-4.68,6.14-18.17,7.08-36.8v-0.07l5.65,0.3l26.74,1.43
			c0,0-0.03,0.39-0.08,1.07c-0.25,3.61-1.05,15.41-0.92,22.06c0.05,2.56,1.38,8.08,1.79,8.34
			C1713.55,775.19,1716.48,777.52,1719.38,779.8z"/>
		<path class="st3" d="M1671.86,666.83c-0.4-1.54-5.3-17.97-30.94-13.21c0,0,12.84-1.28,16.22,3.74c0,0-10.03-4.91-16.48-1.18
			c-6.45,3.72-7.83,16.78-6.99,20.79c0.85,4.01,7.56,16.04,12.2,16.16c1.76,0.05,3.66-0.49,5.33-1.17
			c-0.77,2.09-1.47,4.36-2.06,6.86c-5.53,23.09,9.45,41.14,17.55,36.98c5.19-2.66,8.84,6.4,8.84,6.4l43.94-55.22
			C1719.48,686.96,1690.79,650.62,1671.86,666.83z"/>
		<path class="st52" d="M1708.84,764.34c-16.21-1.92-26.56-16.16-31.4-24.79c-0.06-0.1-0.12-0.21-0.18-0.31l5.83,0.55l26.66,2.5
			C1709.51,745.88,1708.71,757.69,1708.84,764.34z"/>
		<path class="st53" d="M1711.14,751.9c0,0-37.93-0.35-37.34-23.97c0.58-23.62-3.92-39.57,20.32-40.34
			c24.24-0.77,28.72,8.35,30.44,16.28C1726.28,711.8,1721.02,751.38,1711.14,751.9z"/>
		<path class="st3" d="M1723.77,690.72c-5.68-7.25-10.15-5.81-12.68-3.74c-20.43-11.93-34.21,4.57-34.21,4.57
			c-2.97,16.88-15.44,26.27-15.44,26.27s6.8,4.45,22.84,0.76c4.9-1.13,9.33-4.47,13.13-8.57c-6.72,10.64-15.7,18.2-15.7,18.2
			c19.26-8.31,27.58-34.57,28.41-37.35c2.26,2.14,6.71,6.77,7.98,11.23c1.73,6.06,2.27,18.46,5.88,18.14
			C1723.98,720.22,1732.28,701.59,1723.77,690.72z"/>
		<path class="st48" d="M1748.49,823.58c0,0,24.38,31.51,29.92,32.01c5.54,0.49,2.96,21.47,0,26.87
			c-2.96,5.4-21.93,16.95-34.05,4.52C1732.24,874.55,1748.49,823.58,1748.49,823.58z"/>
		<path class="st50" d="M1778.42,954.34c-18.1,2.59-49.69,4.8-55.88,14.78c-6.18,9.97-45.52,2.96-48.75-3.33
			c-3.24-6.28,6.74-57.32,1.57-65.97c-3.89-6.49-17.32-42.27-24.28-62.85c-2.3-6.8-3.89-11.95-4.2-13.83
			c-1.23-7.54-5.88-34.64,12.79-42.59c0,0,9.05-3.89,9.79-7.08c0.18-0.75,0.2-1.94,0.21-3.27v-0.01c0.04-4.32-0.08-10.24,4.13-8.55
			c5.5,2.22,11.33,7.63,20.73,7.14c9.41-0.49,17.53-4.68,18.76-1.97c1.23,2.7-2.19,6.32,0,8.1c2.19,1.78,29.68,18.45,38.17,42.79
			c0,0,6.9,17.57,6.9,32.28c0,1.14-0.01,2.29-0.04,3.46c-0.19,8.78-0.99,18.12-0.11,26.2c0.04,0.43,0.1,0.86,0.15,1.29
			c1.38,10.25,2.88,19.94,4.41,27.43c1.51,7.4,3.07,12.64,4.57,14.15C1774.72,929.96,1796.52,951.75,1778.42,954.34z"/>
		<path class="st53" d="M1875.38,890.43c-0.48-1.48-1.79-3.69-3.02-5.91c-1.23-2.22-10.59-11.82-14.28-12.81
			c-3.69-0.99-21.78,4.07-21.78,4.07s-71.15,0.94-82.5-6.04c-14.78-9.08-50.67-46.68-75.64-65.87c-11.9-9.15-21.33-14.11-24.82-9.81
			c0,0-9.51,9.13,2.46,31.67c0.66,1.26,1.4,2.57,2.21,3.91c15.28,25.41,73.97,74.37,97.55,75.98c23.58,1.61,83.39-18.42,83.39-18.42
			s6.23-1.7,9.43,0.76c3.2,2.46,15.56,2,17.33,3.69C1869.01,894.82,1876.18,892.89,1875.38,890.43z"/>
		<path class="st48" d="M1722.54,969.11c-6.18,9.97-45.52,2.96-48.75-3.33c-3.24-6.28,6.74-57.32,1.57-65.97
			c-3.89-6.49-17.32-42.27-24.28-62.85c1.15-2.32,2.8-3.38,5.08-2.76c15.91,4.37,91.32,62.31,106.62,74.15
			c1.51,7.4,3.07,12.64,4.57,14.15C1767.33,922.52,1720.23,941.41,1722.54,969.11z"/>
		<path class="st48" d="M1758.2,879.64c-23.13-9.83-80.54-65.49-81.36-66.29c0.66,0.23,19.17-8.03,64.03,32.79
			c5.19,4.73,12.51,14.29,14.2,18.44C1757.09,869.57,1757.77,875.78,1758.2,879.64z"/>
		<path class="st50" d="M1658.36,792.5c0,0,11.33,1.64,22.41,10.26c11.08,8.62,66.44,62.69,75.7,64.96
			c9.26,2.27,29.2,1.2,28.96,7.03c-0.24,5.83-4.67,34.4-10.58,39.57c-5.91,5.17-37.19,7.63-50.73-0.99
			c-13.54-8.62-80.77-89.64-76.59-107.13C1651.71,788.72,1658.36,792.5,1658.36,792.5z"/>
		<path class="st48" d="M1684.4,780.54c-5.91-1.47-24.75,0-24.75,0s9.05-3.89,9.79-7.08c0.18-0.75,0.2-1.94,0.21-3.27
			c0.95,3.89,3.85,5.73,11.61,6.09C1689.02,776.66,1690.31,782.01,1684.4,780.54z"/>
		<path class="st51" d="M1977,1154.99c0,0-0.01-0.01-0.02-0.01c-1.22-1.26-79.35-82.25-91.54-133.12c0,0,19.19-5.33,30.76,9.93
			C1927.78,1047.06,1977,1154.99,1977,1154.99z"/>
	</g>
	<g>
		<g>
			<path class="st15" d="M2834.09,766.51c0.43-1.29,0.7-2.71,0.75-4.28c0.55-18.34,4.73-30.52-14.04-32.15
				c-18.77-1.63-22.63,5.25-24.3,11.33c-1.67,6.08,0.72,36.99,8.36,37.82c0,0,2.45,0.11,5.96-0.17c0.16,2.01,0.45,5.5,0.76,9.35
				c0.61,7.34,1.33,15.95,1.54,17.92l20.76-1.02l10.97-13.66C2844.83,791.64,2837.19,782.39,2834.09,766.51z"/>
			<path class="st13" d="M2874.47,1002.96c-4.08,6.92-8.79,13.4-13.66,19.54c-15.03,18.97-31.38,34.61-34.23,49.39
				c-0.57,2.95-1.47,6.12-2.64,9.46c-1.19,3.39-2.66,6.95-4.36,10.63c-6.38,13.85-15.91,29.37-25.43,43.48
				c-16.46,24.39-31.93,44.74-31.93,44.74l-28.38-1.21c1.14-2.84,13.51-36.52,30.07-77.67c6.72-16.7,13.88-34.47,20.77-51.61
				c0.92-2.29,1.84-4.57,2.75-6.83c2.11-5.25,4.18-10.41,6.21-15.43c15.55-38.64,27.93-69.41,27.93-69.41s62.14-23.54,68.6-8.29
				C2895.49,962.34,2891.16,974.66,2874.47,1002.96z"/>
			<path class="st13" d="M2761.33,1175.87c0,0-1.45,23.42-5.98,23.76c-0.6,0.04-22.98,0.04-22.98,0.04l-28.57-0.16
				c0,0,0.19-6.88,8.54-8.34c8.35-1.46,22.33-7.32,27.38-18.36C2745.04,1161.19,2761.33,1175.87,2761.33,1175.87z"/>
			<path class="st13" d="M2827.05,1108.13c0,0,19.74,12.69,17.83,16.8c-0.26,0.55-11.17,20.09-11.17,20.09l-14.07,24.86
				c0,0-5.92-3.52-3.12-11.52c2.8-8,4.49-23.06-2.68-32.86C2806.29,1115.2,2827.05,1108.13,2827.05,1108.13z"/>
			<path class="st34" d="M2808.42,786.57c0.46-0.16,28.06-6.77,30.96-5.64c2.9,1.13,4.35,6.93,4.35,6.93l-44.99,7.74
				C2798.74,795.6,2802.61,788.67,2808.42,786.57z"/>
			<path class="st13" d="M2799.29,739.79c0,0,7.27,20.29,11.33,18.26c4.06-2.03,7.78-3.72,8.79,2.7
				c1.01,6.43-3.04,15.22,10.48,12.85c13.53-2.37,23.59-41.5,18.26-47.01C2832.77,710.71,2778.16,721.02,2799.29,739.79z"/>
			<path class="st18" d="M2891.62,950.25c-7.42,8.78-70.61,6.49-89.12-0.92c-1.39-0.56-2.5-1.14-3.26-1.75
				c-10.88-8.71,13.68-16.36-13.79-82.73c-0.01-0.03-0.03-0.06-0.04-0.1c-17.27-49.13,5.46-63.39,13.44-70.64
				c0,0,38.58-11.72,59.63-5.2C2885.82,797.38,2899.61,940.81,2891.62,950.25z"/>
			<path class="st34" d="M2825.19,917.67c-1.25,9.04-8.52,31.33-22.68,31.65c-1.39-0.56-2.5-1.14-3.26-1.75
				c-10.88-8.71,13.68-16.36-13.79-82.73c-0.01-0.03-0.03-0.06-0.04-0.1c4.59-3.15,12.03-6.73,16.86-1.26
				C2809.71,871.88,2826.47,908.32,2825.19,917.67z"/>
			<path class="st24" d="M2799.25,947.57c0,0-76.92,47.89-85.62,80.54c-8.71,32.65,103.76,102.31,103.76,102.31
				s12.34-10.88,14.51-18.87c0,0-50.84-60.91-61.87-74.56c-6.77-8.38,100.14-29.03,113.2-49.34c13.06-20.32,8.38-37.41,8.38-37.41
				L2799.25,947.57z"/>
			<path class="st15" d="M2696.71,907.4c0,0-11.79-5.05-15.66-2.66c-3.86,2.4-10.51,11.17-11.3,13.28c-0.8,2.11-1.09,5.16,2.64,4.51
				c3.73-0.65,3.95-0.63,3.95-0.63s6.27-4.97,7.77-5.05c1.49-0.08,7.85,2.86,10.89-0.62C2698.04,912.75,2696.71,907.4,2696.71,907.4
				z"/>
			<path class="st18" d="M2798.74,795.6c0,0-11.48,6.15-19.64,26.12c-8.44,20.66-19.65,66.98-22.73,68.99
				c-3.09,2.01-49.41,9.32-63.21,14.69c0,0-5.42,9.71-0.29,13.72c5.12,4.01,67.17,1.81,70.93,0.83
				c31.32-8.11,47.78-69.91,51.52-79.41C2819.05,831.05,2798.74,795.6,2798.74,795.6z"/>
		</g>
		<g>
			<path class="st13" d="M2877.4,1176.48v-32.72h33.41c1.3,0,2.37-1.07,2.37-2.37v-8.9c0-1.3-1.06-2.37-2.37-2.37h-33.41v-105.45
				c0-3.46-2.83-6.29-6.29-6.29h-6.75c-3.46,0-6.29,2.83-6.29,6.29v105.45h-33.41c-1.3,0-2.37,1.07-2.37,2.37v8.9
				c0,1.3,1.06,2.37,2.37,2.37h33.41v32.72c-24.68,1.87-45.77,11.71-51.32,23.19h120.65
				C2921.85,1188.19,2902.07,1178.34,2877.4,1176.48z"/>
			<path class="st18" d="M2947.55,1009.27h-159.64c-3.19,0-5.8,2.61-5.8,5.8V1047c0,3.19,2.61,5.8,5.8,5.8h159.64
				c3.19,0,5.8-2.61,5.8-5.8v-31.93C2953.36,1011.88,2950.74,1009.27,2947.55,1009.27z"/>
		</g>
	</g>
	<g>
		<polygon class="st39" points="1104.63,827.47 1104.22,837.02 1103.34,857 1102.94,866.19 1077.6,866.19 1077.02,857 
			1075.78,837.02 1075.18,827.47 		"/>
		<polygon class="st54" points="1105.12,821.02 1075.09,821.02 1073.86,827.47 1105.96,827.47 		"/>
		<polygon class="st40" points="1104.22,837.02 1103.34,857 1077.02,857 1075.78,837.02 		"/>
	</g>
	<g>
		<path class="st40" d="M1150.85,830.21l-0.17,3.93l-0.13,2.89l-0.8,18.4l-0.07,1.57l-0.4,9.2h-25.35l-0.57-9.2l-0.1-1.57
			l-1.15-18.4l-0.18-2.89l-0.32-5.22l0.07-0.16c0,0,5.91-1.07,9.46,1.19c3.55,2.26,7.42-2.15,10.64-0.86
			c3.23,1.29,3.44,2.9,6.02,1.83C1148.57,830.59,1149.67,830.36,1150.85,830.21z"/>
		<polygon class="st55" points="1150.97,827.47 1150.85,830.21 1150.68,834.13 1150.55,837.02 1149.75,855.42 1149.68,856.99 
			1149.28,866.19 1123.93,866.19 1123.35,856.99 1123.26,855.42 1122.11,837.02 1121.93,834.13 1121.61,828.92 1121.52,827.47 		"/>
		<path class="st55" d="M1151.12,827.47c0-0.15,0.01-0.3,0.01-0.45c0-8.15-6.61-14.75-14.75-14.75s-14.75,6.61-14.75,14.75
			c0,0.15,0.01,0.3,0.01,0.45H1151.12z"/>
		<g>
			<path class="st39" d="M1133.82,863.86l-1.29-0.16c0.08-0.81,4.21-55.38,4.85-59.02c0.71-4,4.59-5.19,4.75-5.24l0.07-0.02
				l20.64-3.66l0.22,1.27l-20.6,3.65c-0.35,0.11-3.27,1.14-3.82,4.21C1138.02,808.48,1133.84,863.66,1133.82,863.86z"/>
		</g>
		<polygon class="st39" points="1150.68,834.13 1150.55,837.02 1149.75,855.42 1123.26,855.42 1122.11,837.02 1121.93,834.13 		"/>
	</g>
	<g>
		<path class="st54" d="M1031.37,853.1c0.08-0.24,0-4.54,7.24-6.09c7.24-1.55,5.07-5.17,5.07-5.17s10.53,5.15,8.44,11.26
			C1050.03,859.21,1031.37,853.1,1031.37,853.1z"/>
		<polygon class="st40" points="1052.29,866.19 1031.03,866.19 1027.4,850.82 1055.45,850.82 		"/>
	</g>
	<g>
		<polygon class="st29" points="2052,862.93 2021.98,862.93 2020.74,869.38 2022.07,869.38 2022.66,878.93 2023.91,898.9 
			2024.48,908.1 2049.83,908.1 2050.23,898.9 2051.1,878.93 2051.52,869.38 2052.85,869.38 		"/>
		<path class="st29" d="M1990.56,883.75c0,0,2.17,3.62-5.07,5.17c-3.88,0.83-5.65,2.45-6.47,3.81h-4.74l3.64,15.37h21.25l3.17-15.37
			h-3.11C1998.58,887.67,1990.56,883.75,1990.56,883.75z"/>
	</g>
	<path class="st48" d="M1933.55,838.07c-1.2-0.44-2.54,0.19-2.98,1.39l-23.27,63.99h-68.01c-1.28,0-2.33,1.05-2.33,2.33
		c0,1.28,1.05,2.33,2.33,2.33h69.72c0.01,0,0.02,0,0.03,0c0,0,0,0,0.01,0c1.17-0.02,2.13-0.92,2.26-2.06l23.64-64.98
		C1935.38,839.85,1934.75,838.51,1933.55,838.07z"/>
	<g>
		<path class="st42" d="M3303.23,1060.82c0,0-40.74-22.81-21.73-53.77c0,0,15.21-19.01,31.5-23.9c0,0-8.69,46.17,0,47.25
			c8.69,1.09,5.97-52.14,5.97-52.14s42.91-20.64,59.75-19.01c0,0-26.61,45.08-17.92,43.99c8.69-1.09,38.56-46.71,38.56-46.71
			s43.99-8.15,51.06,17.92c7.06,26.07-4.35,39.11-10.86,40.74c-6.52,1.63-48.34,1.09-47.25,6.52c1.09,5.43,29.33,14.12,45.08,9.23
			c0,0-17.38,42.91-40.19,40.74c-22.81-2.17-29.87-16.29-43.99-17.38c-14.12-1.09-24.44,2.72-17.38,6.52
			c7.06,3.8,30.96,1.25,42.36,10.94c11.41,9.7,20.64,15.67-0.54,20.02c-21.18,4.34-59.2,1.63-66.81-14.67
			C3303.23,1060.82,3303.23,1060.82,3303.23,1060.82z"/>
		<path class="st56" d="M3430.33,982.6c0,0-114.06,36.93-127.1,78.21c0,0,0.54,18.47-10.86,39.65v0.01
			c-0.08,0.13-9.99,15.26-10.62,36.57h6.55c0.12-9.71,1.14-20.88,4.47-29.33c0-0.01,0-0.01,0.01-0.02c0.03-0.08,0.07-0.16,0.1-0.23
			c0.31-0.7,0.75-1.68,1.3-2.88c0.01-0.02,0.02-0.04,0.03-0.06c1.33-2.6,2.23-4.52,2.79-5.92l0,0c0,0,0.01,0,0.01-0.01
			c0.01-0.01,0.01-0.03,0.02-0.04c4.07-8.33,9.91-19.17,13.81-21.44C3310.84,1077.11,3285.31,1041.26,3430.33,982.6z"/>
	</g>
	<g>
		<path class="st42" d="M3262.86,1096.13c0,0,30.9-17.31,16.48-40.79c0,0-11.54-14.42-23.9-18.13c0,0,6.59,35.02,0,35.85
			c-6.59,0.82-4.53-39.56-4.53-39.56s-32.55-15.66-45.32-14.42c0,0,20.19,34.2,13.6,33.38c-6.59-0.82-29.25-35.43-29.25-35.43
			s-33.38-6.18-38.73,13.6c-5.36,19.78,3.3,29.67,8.24,30.9c4.94,1.24,36.67,0.83,35.85,4.94c-0.82,4.12-22.25,10.71-34.2,7.01
			c0,0,13.19,32.55,30.49,30.9c17.31-1.65,22.66-12.36,33.38-13.19c10.71-0.82,18.54,2.06,13.19,4.95
			c-5.36,2.88-23.49,0.95-32.14,8.3c-8.65,7.36-15.66,11.89,0.41,15.18c16.07,3.3,44.91,1.24,50.68-11.12
			C3262.86,1096.13,3262.86,1096.13,3262.86,1096.13z"/>
		<path class="st56" d="M3272.42,1137.04h3.65c-2.28-6.74-4.96-10.82-4.97-10.83c-8.65-16.07-8.24-30.08-8.24-30.08
			c-9.89-31.32-96.42-59.33-96.42-59.33c110.01,44.5,90.65,71.69,90.65,71.69c2.96,1.73,7.39,9.93,10.47,16.25
			c0.01,0.02,0.01,0.03,0.02,0.05c0.01,0,0.01,0.01,0.01,0.01c0.44,1.08,1.14,2.56,2.17,4.59c0,0.02,0.01,0.03,0.02,0.04
			c0.39,0.84,0.71,1.55,0.93,2.06C3271.4,1133.21,3271.96,1135.08,3272.42,1137.04z"/>
	</g>
	<g>
		<path class="st57" d="M3282.09,1196.28c36.77,0,66.58-29.81,66.58-66.58h-133.16C3215.51,1166.47,3245.32,1196.28,3282.09,1196.28
			z"/>
		<path class="st58" d="M3298.47,1195.77c-2.71,0.34-5.47,0.51-8.27,0.51c-36.77,0-66.57-29.81-66.57-66.58h16.54
			C3240.16,1163.67,3265.6,1191.7,3298.47,1195.77z"/>
		<path class="st57" d="M3349.25,1199.67h-134.99l0,0c0-4.54,3.68-8.21,8.21-8.21h118.57
			C3345.57,1191.45,3349.25,1195.13,3349.25,1199.67L3349.25,1199.67z"/>
		<rect x="3213.32" y="1129.7" class="st42" width="136.86" height="2.04"/>
	</g>
</g>
</svg>
