<?xml version="1.0" encoding="utf-8"?>
<!-- Generator: Adobe Illustrator 24.0.2, SVG Export Plug-In . SVG Version: 6.00 Build 0)  -->
<svg version="1.1" id="Layer_1" xmlns="http://www.w3.org/2000/svg" xmlns:xlink="http://www.w3.org/1999/xlink" x="0px" y="0px"
	 viewBox="0 0 425.6 338.5" style="enable-background:new 0 0 425.6 338.5;" xml:space="preserve">
<style type="text/css">
	.st0{display:none;fill:#CCE2F4;}
	.st1{fill:#B7D4E8;}
	.st2{fill:none;stroke:#A5BDF6;stroke-width:0.7274;stroke-miterlimit:10;stroke-dasharray:3.8951;}
	.st3{fill:#2745AD;}
	.st4{fill:#1F377C;}
	.st5{fill:#5A7BCC;}
	.st6{fill:#FFFFFF;}
	.st7{fill:none;stroke:#384AAE;stroke-miterlimit:10;}
	.st8{fill:#7D9EE6;}
	.st9{fill:#F8ED9A;}
	.st10{fill:#1A2C42;}
	.st11{fill:#FAFAFA;}
	.st12{opacity:0.32;fill:#FFFFFF;enable-background:new    ;}
	.st13{fill:#E1F1FC;}
	.st14{fill:#5071BC;}
	.st15{opacity:0.72;fill:#FFFFFF;enable-background:new    ;}
	.st16{font-family:'ArialMT';}
	.st17{font-size:18.5003px;}
	.st18{letter-spacing:2;}
	.st19{fill:#3547AB;}
	.st20{fill:#351C3D;}
	.st21{fill:none;stroke:#221327;stroke-miterlimit:10;}
	.st22{fill:#221327;}
	.st23{fill:#7395E1;}
	.st24{fill:#F3EDE9;}
	.st25{fill:#1A2C42;stroke:#E5FF00;stroke-miterlimit:10;}
	.st26{fill:#FAFAFA;stroke:#E5FF00;stroke-miterlimit:10;}
	.st27{fill:#BE2F29;}
	.st28{fill:#BE2F29;stroke:#DED078;stroke-miterlimit:10;}
	.st29{fill:#E4BB9E;}
	.st30{fill:#D8AC91;}
	.st31{fill:#26152C;}
	.st32{fill:#1A2C42;stroke:#50235E;stroke-width:0.7824;stroke-miterlimit:10;}
	.st33{fill:#750002;stroke:#E1AAFF;stroke-miterlimit:10;}
	.st34{fill:#1A2C42;stroke:#906AC9;stroke-miterlimit:10;}
	.st35{display:none;}
	.st36{display:inline;}
	.st37{fill:#222221;}
</style>
<g id="BACKGROUND">
	<rect x="-13" y="76.5" class="st0" width="500" height="500"/>
</g>
<g id="OBJECTS">
	<g>
		<g>
			<polygon class="st1" points="367.9,131.5 367.9,137.4 364.5,137.4 364.5,192.4 381.6,192.4 381.6,184.4 419.3,184.4 419.3,282 
				318,282 318,137.4 313.5,137.4 313.5,131.5 			"/>
			<polygon class="st1" points="6.5,192.5 49.3,192.5 49.3,126.4 106.1,126.4 106.1,282.2 11.3,282.2 11.3,198.4 6.5,198.4 			"/>
		</g>
		<g>
			<path class="st2" d="M243.5,38.3c0,0,89.1,144.5,133.8,96.2c0,0,24.3-27.8,9.2-31.1c-18.9-4.2-31.7,41.1-53.4,66.9
				c-38.8,46.1-130.6-2.2-130.6-2.2"/>
			<g>
				<g>
					<path class="st3" d="M234.1,17.2c-0.1-0.1,7.9,4.7,7.9,4.7l-2,13.3l-3.9-10l-10.2-1.9L211.2,9.7L234.1,17.2z"/>
					<polygon class="st4" points="211.2,9.7 239.9,35.2 236,25.3 					"/>
					<polygon class="st5" points="211.2,9.7 249.1,17.6 241.9,21.9 211.2,9.7 236,25.3 223.8,32.8 					"/>
				</g>
			</g>
		</g>
		<g>
			<path class="st6" d="M161.6,68.2c0,0,2.8-3.2,4.5-4.7c3.1-2.7,6.6-7.4,18-3.9c0.9,0.3,1.7,0.6,2.6,1c1,0.4,4.1,0.4,7.3-2.1
				c5-4,7-7,13.9-7.1c8-0.1,9.3,9.9,15.5,12.5c4,1.6,14.5,3.3,16.6,4L161.6,68.2z"/>
			<path class="st6" d="M32.7,31.4c0,0,1.9-2.2,3-3.2c2.1-1.8,4.5-5,12.1-2.6c0.6,0.2,1.2,0.4,1.7,0.7c0.7,0.3,2.8,0.3,4.9-1.4
				c3.4-2.7,4.7-4.7,9.4-4.8c5.4-0.1,6.3,6.7,10.5,8.4c2.7,1.1,9.8,2.2,11.2,2.7L32.7,31.4z"/>
		</g>
		<g>
			<g>
				<g>
					<g>
						<ellipse class="st5" cx="398.9" cy="249.9" rx="15.2" ry="15.2"/>
						<path class="st5" d="M409.5,229.5c0,5.9-4.8,10.7-10.7,10.7s-10.7-4.8-10.7-10.7s4.8-10.7,10.7-10.7
							C404.8,218.8,409.5,223.6,409.5,229.5z"/>
					</g>
					<g>
						<line class="st7" x1="398.9" y1="224.8" x2="398.9" y2="282.7"/>
						<line class="st7" x1="393.3" y1="246.4" x2="398.9" y2="254"/>
					</g>
				</g>
				<line class="st7" x1="404" y1="238.9" x2="398.9" y2="246.9"/>
			</g>
			<g>
				<g>
					<g>
						<ellipse class="st5" cx="30.8" cy="249.9" rx="15.2" ry="15.2"/>
						<path class="st5" d="M41.4,229.5c0,5.9-4.8,10.7-10.7,10.7S20,235.4,20,229.5s4.8-10.7,10.7-10.7S41.4,223.6,41.4,229.5z"/>
					</g>
					<g>
						<line class="st7" x1="30.8" y1="224.8" x2="30.8" y2="282.7"/>
						<line class="st7" x1="25.1" y1="246.4" x2="30.8" y2="254"/>
					</g>
				</g>
				<line class="st7" x1="35.8" y1="238.9" x2="30.8" y2="246.9"/>
			</g>
		</g>
		<g>
			<g>
				<g>
					<g>
						<path class="st8" d="M402.1,82.6H297.9c-2.7,0-5-2.2-5-4.9V58.3c0-2.7,2.2-5,5-5h104.3c2.7,0,5,2.2,5,5v19.4
							C407.1,80.4,404.9,82.6,402.1,82.6z"/>
						<path class="st8" d="M301.6,78.7l4.7,9.2c0.6,1.1,2.2,1.2,2.9,0.1l5.7-9.3H301.6z"/>
					</g>
				</g>
			</g>
			<g>
				<g>
					<path class="st9" d="M321.9,61.8l1.4,2.8c0.1,0.2,0.3,0.3,0.5,0.3l3.1,0.5c0.5,0.1,0.7,0.7,0.4,1.1l-2.3,2.2
						c-0.1,0.2-0.2,0.4-0.2,0.6l0.5,3.1c0.1,0.5-0.5,0.9-0.9,0.7l-2.8-1.5c-0.2-0.1-0.4-0.1-0.6,0l-2.8,1.5c-0.5,0.3-1-0.2-0.9-0.7
						l0.5-3.1c0-0.2,0-0.4-0.2-0.6l-2.3-2.2c-0.4-0.4-0.2-1,0.4-1.1l3.1-0.5c0.2,0,0.4-0.2,0.5-0.3l1.4-2.8
						C321,61.4,321.7,61.4,321.9,61.8z"/>
					<path class="st9" d="M336.8,61.8l1.4,2.8c0.1,0.2,0.3,0.3,0.5,0.3l3.1,0.5c0.5,0.1,0.7,0.7,0.4,1.1l-2.3,2.2
						c-0.1,0.2-0.2,0.4-0.2,0.6l0.5,3.1c0.1,0.5-0.5,0.9-0.9,0.7l-2.8-1.5c-0.2-0.1-0.4-0.1-0.6,0l-2.8,1.5c-0.5,0.3-1-0.2-0.9-0.7
						l0.5-3.1c0-0.2,0-0.4-0.2-0.6l-2.3-2.2c-0.4-0.4-0.2-1,0.4-1.1l3.1-0.5c0.2,0,0.4-0.2,0.5-0.3l1.4-2.8
						C335.9,61.4,336.6,61.4,336.8,61.8z"/>
					<path class="st9" d="M351.7,61.8l1.4,2.8c0.1,0.2,0.3,0.3,0.5,0.3l3.1,0.5c0.5,0.1,0.7,0.7,0.4,1.1l-2.3,2.2
						c-0.1,0.2-0.2,0.4-0.2,0.6l0.5,3.1c0.1,0.5-0.5,0.9-0.9,0.7l-2.8-1.5c-0.2-0.1-0.4-0.1-0.6,0l-2.8,1.5c-0.5,0.3-1-0.2-0.9-0.7
						l0.5-3.1c0-0.2,0-0.4-0.2-0.6l-2.3-2.2c-0.4-0.4-0.2-1,0.4-1.1l3.1-0.5c0.2,0,0.4-0.2,0.5-0.3l1.4-2.8
						C350.8,61.4,351.5,61.4,351.7,61.8z"/>
					<path class="st6" d="M366.6,61.8l1.4,2.8c0.1,0.2,0.3,0.3,0.5,0.3l3.1,0.5c0.5,0.1,0.7,0.7,0.4,1.1l-2.3,2.2
						c-0.1,0.2-0.2,0.4-0.2,0.6l0.5,3.1c0.1,0.5-0.5,0.9-0.9,0.7l-2.8-1.5c-0.2-0.1-0.4-0.1-0.6,0l-2.8,1.5c-0.5,0.3-1-0.2-0.9-0.7
						l0.5-3.1c0-0.2,0-0.4-0.2-0.6l-2.3-2.2c-0.4-0.4-0.2-1,0.4-1.1l3.1-0.5c0.2,0,0.4-0.2,0.5-0.3l1.4-2.8
						C365.7,61.4,366.4,61.4,366.6,61.8z"/>
					<path class="st6" d="M386.9,66.6c0.4-0.4,0.2-1-0.4-1.1l-3.1-0.5c-0.2,0-0.4-0.2-0.5-0.3l-1.4-2.8c-0.1-0.2-0.3-0.3-0.4-0.3v0
						c0,0-0.1,0-0.2,0c-0.1,0-0.3,0.1-0.4,0.2c-0.1,0-0.1,0.1-0.1,0.2l-1.4,2.8c-0.1,0.2-0.3,0.3-0.5,0.3l-3.1,0.5
						c-0.5,0.1-0.7,0.7-0.4,1.1l2.3,2.2c0.1,0.2,0.2,0.4,0.2,0.6l-0.5,3.1c-0.1,0.5,0.5,0.9,0.9,0.7l2.7-1.4l0.1-0.1
						c0.1,0,0.2-0.1,0.3-0.1c0.1,0,0.2,0,0.3,0.1l2.8,1.5c0.5,0.3,1-0.2,0.9-0.7l-0.5-3.1c0-0.2,0-0.4,0.2-0.6L386.9,66.6z"/>
				</g>
			</g>
		</g>
		<g>
			<g>
				<ellipse class="st10" cx="89.9" cy="78.4" rx="25.9" ry="25.9"/>
			</g>
			<g>
				<path class="st11" d="M99.8,73.1c0-5.5-4.4-9.9-9.9-9.9s-9.9,4.4-9.9,9.9c0,1.6,0.4,3.1,1.1,4.5h0l0.1,0.1
					c0,0.1,0.1,0.1,0.1,0.2l8.6,15.6l8.6-15.6c0-0.1,0.1-0.1,0.1-0.2l0-0.1h0C99.4,76.3,99.8,74.8,99.8,73.1z M89.9,76.3
					c-2.2,0-3.9-1.8-3.9-3.9c0-2.2,1.8-3.9,3.9-3.9s3.9,1.8,3.9,3.9C93.9,74.5,92.1,76.3,89.9,76.3z"/>
			</g>
		</g>
	</g>
	<g>
		<g>
			<g>
				<rect x="66.1" y="165.4" class="st5" width="61.7" height="49"/>
				<g>
					<rect x="81.9" y="170.7" class="st12" width="28.8" height="28.9"/>
					<rect x="87.5" y="176" class="st13" width="17.5" height="17.7"/>
					<path class="st3" d="M111.6,203.4H81v-33.6h30.5V203.4z M82.7,201.7h27.1v-30.1H82.7V201.7z"/>
					<rect x="78.2" y="197.5" class="st3" width="36.1" height="8"/>
					<rect x="78.2" y="205.5" class="st14" width="36.1" height="3.8"/>
					<g>
						
							<rect x="85.7" y="182.2" transform="matrix(0.7628 -0.6466 0.6466 0.7628 -95.474 105.9137)" class="st15" width="21.8" height="1.8"/>
						<polygon class="st15" points="87.9,186.6 87,185.6 98.7,175.8 99.5,176.8 						"/>
					</g>
					<path class="st3" d="M105.8,194.6H86.6v-19.4h19.2V194.6z M88.3,192.8h15.8v-15.9H88.3V192.8z"/>
				</g>
				<rect x="60.8" y="157.3" class="st3" width="66.9" height="8.1"/>
				<rect x="125" y="165.4" class="st3" width="2.8" height="49.9"/>
			</g>
			<g>
				<rect x="54.9" y="237.7" class="st5" width="72.8" height="44.8"/>
				<g>
					<rect x="65.2" y="244.6" class="st13" width="17.5" height="17.7"/>
					<g>
						
							<rect x="63.4" y="250.8" transform="matrix(0.7628 -0.6466 0.6466 0.7628 -145.1014 107.7739)" class="st15" width="21.8" height="1.8"/>
						<polygon class="st15" points="65.6,255.2 64.8,254.2 76.4,244.3 77.3,245.3 						"/>
					</g>
					<path class="st3" d="M83.5,263.1H64.3v-19.4h19.2V263.1z M66.1,261.4h15.8v-15.9H66.1V261.4z"/>
				</g>
				<g>
					<rect x="96.9" y="244.6" class="st13" width="17.5" height="17.7"/>
					<g>
						
							<rect x="95.2" y="250.8" transform="matrix(0.7628 -0.6466 0.6466 0.7628 -137.5646 128.3149)" class="st15" width="21.8" height="1.8"/>
						<polygon class="st15" points="97.4,255.2 96.5,254.2 108.2,244.3 109,245.3 						"/>
					</g>
					<path class="st3" d="M115.3,263.1H96.1v-19.4h19.2V263.1z M97.8,261.4h15.8v-15.9H97.8V261.4z"/>
				</g>
				<polygon class="st3" points="127.8,214 66.1,214.4 52,228.7 127.8,228.7 				"/>
				<rect x="52" y="228.7" class="st3" width="75.8" height="9"/>
				<rect x="125" y="237.7" class="st3" width="2.8" height="44.8"/>
			</g>
		</g>
		<g>
			<g>
				<rect x="301.9" y="237.7" class="st5" width="72.9" height="44.8"/>
				<g>
					<rect x="346.9" y="244.6" class="st13" width="17.5" height="17.7"/>
					<g>
						
							<rect x="354.4" y="240.8" transform="matrix(0.6466 -0.7628 0.7628 0.6466 -66.4492 359.9335)" class="st15" width="1.8" height="21.8"/>
						<polygon class="st15" points="364,255.2 364.9,254.2 353.2,244.3 352.4,245.3 						"/>
					</g>
					<path class="st3" d="M346.1,243.8h19.2v19.4h-19.2V243.8z M363.6,245.5h-15.8v15.9h15.8L363.6,245.5L363.6,245.5z"/>
				</g>
				<g>
					<rect x="315.2" y="244.6" class="st13" width="17.5" height="17.7"/>
					<g>
						
							<rect x="322.6" y="240.8" transform="matrix(0.6466 -0.7628 0.7628 0.6466 -77.6766 335.7004)" class="st15" width="1.8" height="21.8"/>
						<polygon class="st15" points="332.3,255.2 333.1,254.2 321.5,244.3 320.6,245.3 						"/>
					</g>
					<path class="st3" d="M314.3,243.8h19.2v19.4h-19.2V243.8z M331.8,245.5H316v15.9h15.8V245.5z"/>
				</g>
				<polygon class="st3" points="301.9,214 363.6,214.4 377.6,228.7 301.9,228.7 				"/>
				<rect x="301.9" y="228.7" class="st3" width="75.8" height="9"/>
				<rect x="301.9" y="237.7" class="st3" width="2.8" height="44.8"/>
			</g>
			<g>
				<rect x="301.9" y="165.4" class="st5" width="61.7" height="49"/>
				<rect x="301.9" y="157.3" class="st3" width="66.9" height="8.1"/>
				<g>
					<rect x="319.1" y="170.7" class="st12" width="28.8" height="28.9"/>
					<rect x="324.7" y="176" class="st13" width="17.5" height="17.7"/>
					<path class="st3" d="M348.8,203.4h-30.5v-33.6h30.5V203.4z M320,201.7h27.1v-30.1H320V201.7z"/>
					<rect x="315.5" y="197.5" class="st3" width="36.1" height="8"/>
					<rect x="315.5" y="205.5" class="st14" width="36.1" height="3.8"/>
					<g>
						
							<rect x="323" y="182.2" transform="matrix(0.7628 -0.6466 0.6466 0.7628 -39.2041 259.3193)" class="st15" width="21.8" height="1.8"/>
						<polygon class="st15" points="325.1,186.6 324.3,185.6 335.9,175.8 336.8,176.8 						"/>
					</g>
					<path class="st3" d="M343.1,194.6h-19.2v-19.4h19.2V194.6z M325.6,192.8h15.8v-15.9h-15.8V192.8z"/>
				</g>
				<rect x="301.9" y="165.4" class="st3" width="2.8" height="49.9"/>
			</g>
		</g>
		<g>
			<rect x="127.8" y="139.8" class="st5" width="174.1" height="142.8"/>
			<g>
				<rect x="125" y="214.4" class="st3" width="179.7" height="7.7"/>
				<rect x="125" y="132" class="st3" width="179.7" height="7.7"/>
			</g>
			<g>
				<rect x="127.8" y="124.5" class="st5" width="174.1" height="7.6"/>
				<path class="st5" d="M257.3,102.6h-89.5c-5.9,0-10.6,4.8-10.6,10.6v16.6H268v-16.6C268,107.3,263.2,102.6,257.3,102.6z"/>
				<text transform="matrix(1 0 0 1 172.8484 122.121)" class="st6 st16 st17 st18">HOTEL</text>
			</g>
			<g>
				<g>
					<rect x="142.9" y="227.8" class="st12" width="28.8" height="28.9"/>
					<rect x="148.5" y="233.2" class="st13" width="17.5" height="17.7"/>
					<path class="st3" d="M172.6,260.5H142V227h30.5V260.5z M143.8,258.8h27.1v-30.1h-27.1V258.8z"/>
					<rect x="139.2" y="254.6" class="st3" width="36.1" height="8"/>
					<rect x="139.2" y="262.6" class="st14" width="36.1" height="3.8"/>
					<g>
						
							<rect x="146.7" y="239.4" transform="matrix(0.7628 -0.6466 0.6466 0.7628 -117.9596 158.9205)" class="st15" width="21.8" height="1.8"/>
						<polygon class="st15" points="148.9,243.8 148,242.8 159.7,232.9 160.5,233.9 						"/>
					</g>
					<path class="st3" d="M166.8,251.7h-19.2v-19.4h19.2L166.8,251.7L166.8,251.7z M149.3,250h15.8v-15.9h-15.8V250z"/>
				</g>
				<g>
					<rect x="256.5" y="156.5" class="st12" width="28.8" height="39"/>
					<rect x="262.1" y="161.8" class="st13" width="17.5" height="27.7"/>
					<path class="st19" d="M286.2,199.2h-30.5v-43.6h30.5V199.2z M257.4,197.5h27.1v-40.2h-27.1V197.5z"/>
					<rect x="252.9" y="193.3" class="st3" width="36.1" height="8"/>
					<rect x="252.9" y="201.3" class="st14" width="36.1" height="3.8"/>
					<g>
						
							<rect x="260.4" y="168" transform="matrix(0.7629 -0.6465 0.6465 0.7629 -44.8645 215.4523)" class="st15" width="21.8" height="1.8"/>
						<polygon class="st15" points="262.6,172.4 261.7,171.4 273.4,161.5 274.2,162.5 						"/>
					</g>
					<path class="st19" d="M280.5,190.4h-19.2V161h19.2V190.4z M263,188.7h15.8v-26H263V188.7z"/>
					<rect x="262.1" y="174.8" class="st19" width="17.5" height="1.7"/>
				</g>
				<g>
					<rect x="199" y="156.5" class="st12" width="28.8" height="39"/>
					<rect x="204.6" y="161.8" class="st13" width="17.5" height="27.7"/>
					<path class="st19" d="M228.7,199.2h-30.5v-43.6h30.5L228.7,199.2L228.7,199.2z M199.9,197.5H227v-40.2h-27.1V197.5z"/>
					<rect x="195.4" y="193.3" class="st3" width="36.1" height="8"/>
					<rect x="195.4" y="201.3" class="st14" width="36.1" height="3.8"/>
					<g>
						
							<rect x="202.9" y="168" transform="matrix(0.7629 -0.6465 0.6465 0.7629 -58.5084 178.2532)" class="st15" width="21.8" height="1.8"/>
						<polygon class="st15" points="205,172.4 204.2,171.4 215.8,161.5 216.7,162.5 						"/>
					</g>
					<path class="st19" d="M223,190.4h-19.2V161H223V190.4z M205.5,188.7h15.8v-26h-15.8V188.7z"/>
					<rect x="204.6" y="174.8" class="st19" width="17.5" height="1.7"/>
				</g>
				<g>
					<rect x="142.9" y="156.5" class="st12" width="28.8" height="39"/>
					<rect x="148.5" y="161.8" class="st13" width="17.5" height="27.7"/>
					<path class="st19" d="M172.6,199.2H142v-43.6h30.5V199.2z M143.8,197.5h27.1v-40.2h-27.1V197.5z"/>
					<rect x="139.2" y="193.3" class="st3" width="36.1" height="8"/>
					<rect x="139.2" y="201.3" class="st14" width="36.1" height="3.8"/>
					<g>
						
							<rect x="146.7" y="168" transform="matrix(0.7629 -0.6465 0.6465 0.7629 -71.8121 141.9608)" class="st15" width="21.8" height="1.8"/>
						<polygon class="st15" points="148.9,172.4 148,171.4 159.7,161.5 160.5,162.5 						"/>
					</g>
					<path class="st19" d="M166.8,190.4h-19.2V161h19.2L166.8,190.4L166.8,190.4z M149.3,188.7h15.8v-26h-15.8V188.7z"/>
					<rect x="148.5" y="174.8" class="st19" width="17.5" height="1.7"/>
				</g>
				<g>
					<rect x="256.5" y="227.8" class="st12" width="28.8" height="28.9"/>
					<rect x="262.1" y="233.2" class="st13" width="17.5" height="17.7"/>
					<path class="st3" d="M286.2,260.5h-30.5V227h30.5V260.5z M257.3,258.8h27.1v-30.1h-27.1V258.8z"/>
					<rect x="252.8" y="254.6" class="st3" width="36.1" height="8"/>
					<rect x="252.8" y="262.6" class="st14" width="36.1" height="3.8"/>
					<g>
						
							<rect x="260.3" y="239.4" transform="matrix(0.7628 -0.6466 0.6466 0.7628 -91.0207 232.3692)" class="st15" width="21.8" height="1.8"/>
						<polygon class="st15" points="262.5,243.8 261.6,242.8 273.3,232.9 274.1,233.9 						"/>
					</g>
					<path class="st3" d="M280.4,251.7h-19.2v-19.4h19.2V251.7z M262.9,250h15.8v-15.9h-15.8V250z"/>
				</g>
				<g>
					<g>
						<rect x="190.7" y="238.4" class="st20" width="46.8" height="44.2"/>
						<line class="st21" x1="214.8" y1="282.5" x2="214.8" y2="239.9"/>
						<circle class="st22" cx="209.2" cy="259.4" r="1.8"/>
						<circle class="st22" cx="220.4" cy="259.4" r="1.8"/>
					</g>
					<g>
						<g>
							<polygon class="st3" points="237.8,214.4 190.4,214.4 186.1,233.8 242.2,233.8 							"/>
						</g>
						<path class="st23" d="M233.9,244.6h-39.6c-4.6,0-8.2-3.7-8.2-8.2v-2.6h56.1v2.6C242.2,240.9,238.5,244.6,233.9,244.6z"/>
						<g>
							<g>
								<polygon class="st24" points="195.5,235.5 196.2,237.7 198.5,237.7 196.6,239 197.3,241.2 195.5,239.9 193.6,241.2 
									194.3,239 192.5,237.7 194.8,237.7 								"/>
							</g>
							<g>
								<polygon class="st24" points="204.8,235.5 205.5,237.7 207.8,237.7 205.9,239 206.6,241.2 204.8,239.9 202.9,241.2 
									203.6,239 201.8,237.7 204.1,237.7 								"/>
							</g>
							<g>
								<polygon class="st24" points="214.1,235.5 214.8,237.7 217.1,237.7 215.3,239 216,241.2 214.1,239.9 212.3,241.2 213,239 
									211.1,237.7 213.4,237.7 								"/>
							</g>
							<g>
								<polygon class="st24" points="223.5,235.5 224.2,237.7 226.5,237.7 224.6,239 225.3,241.2 223.5,239.9 221.6,241.2 
									222.3,239 220.4,237.7 222.8,237.7 								"/>
							</g>
							<g>
								<polygon class="st24" points="232.8,235.5 233.5,237.7 235.8,237.7 233.9,239 234.6,241.2 232.8,239.9 230.9,241.2 
									231.6,239 229.8,237.7 232.1,237.7 								"/>
							</g>
						</g>
					</g>
				</g>
			</g>
		</g>
		<line class="st7" x1="0" y1="282.5" x2="432.5" y2="282.5"/>
	</g>
	<g>
		<g>
			<path class="st25" d="M285.6,138.2h-31.8c-2.7,0-4.9,2.2-4.9,4.9v30.2v6.8v3.4c0,1.5,1.9,2.2,2.9,1.1l3.8-4.4h30
				c2.7,0,4.9-2.2,4.9-4.9v-32.1C290.4,140.4,288.3,138.2,285.6,138.2z"/>
			<g>
				<g>
					<g>
						<path class="st26" d="M266,168.1c4.2,0.1,8.4,0.1,12.3-0.1c1.2-0.1,2.3-2,0.8-2.6c0.6-0.3,1.3-0.6,1.5-1.3
							c0.3-0.7,0-1.6-0.7-1.7c1.5,0.4,2-1.9,0.9-2.7c0.6-0.5,1.1-1.2,1.2-2s-0.2-1.7-0.9-2c-0.5-0.3-1-0.3-1.5-0.3
							c-1.7,0-3.5,0-5.2,0c0.5-2.7,0.6-5.7-0.8-8.1c-0.4-0.7-1.5-1.6-2.4-1c-0.8,0.5-0.6,1.8-0.6,2.6c0.2,3.4-1.8,6.8-4.8,8.4
							C265.9,157.2,266.1,164.4,266,168.1z"/>
					</g>
				</g>
				<rect x="258.2" y="157.2" class="st26" width="6.3" height="10.9"/>
			</g>
		</g>
		<g>
			<g>
				<g>
					<g>
						<path class="st27" d="M239.6,208.3c1,0,9.3-2.6,9.3-2.6l2.3-1.9c1.3-1.1,3-1.7,4.7-1.7h5.3c0.5,0,0.9,0.4,0.9,0.9l0,0
							c0,0.4-0.3,0.7-0.6,0.8l-10.4,4.7l-10.7,5.4L239.6,208.3z"/>
						<path class="st27" d="M207.5,182.5c0,0-1.6,9.9,11.4,30.8c0,0,4.9,7.4,7.2,7.3c3.7-0.1,16-3.4,21.9-7.4l-1-8l-18.9,3.5
							l-3.1-15.6c-0.5-2.9-1.7-6.2-3.7-7.9C221.2,185.1,213,176.7,207.5,182.5z"/>
						<path class="st28" d="M228,208.7c0,0-1.5,1.2-2.3,3.6"/>
					</g>
					<g>
						<path class="st27" d="M207.2,180.8c0,0-7.9,1.5-11.4,9.5c0,0-0.8,13.5,0,41.1h26.8c0,0,0.4-44.2-6.7-50L207.2,180.8z"/>
						<path class="st28" d="M222.3,217.8L222.3,217.8c0,0-0.7-13.5-1.9-23.1"/>
					</g>
					<g>
						<g>
							<g>
								<path class="st27" d="M183.2,254.9c-2.5-1.5-3.4-4.7-1.9-7.2c1.5-2.5,4.7-3.4,7.2-1.9c2.5,1.5,3.4,4.7,1.9,7.2
									S185.7,256.4,183.2,254.9z"/>
							</g>
							<polyline class="st27" points="189.7,235.9 187.8,246.9 182,246.7 183.1,235.2 							"/>
						</g>
						<path class="st27" d="M200.8,183.8c0,0-18.8,10.6-21.4,58.9l11.3-0.7c0,0,1.8-32.8,13.3-46.7
							C204,195.3,208.9,189.8,200.8,183.8z"/>
						<path class="st28" d="M195.4,213.8c0,0,2.6-9.4,5.4-14"/>
					</g>
				</g>
				<g>
					<g>
						<g>
							<g>
								<path class="st29" d="M206.3,180.6l0-10.4l7.4,0l0,10.4c0,2.1-1.7,3.7-3.7,3.7l0,0C207.9,184.4,206.2,182.7,206.3,180.6z"/>
							</g>
							<path class="st30" d="M206,170.8c0,0,0.8,8.9,7.6,8.7l0-4.4L206,170.8z"/>
						</g>
					</g>
					<path class="st31" d="M217.7,159.3c0,0,6.6,2.3,1.8,8l-1.8-3.9V159.3z"/>
					<path class="st29" d="M212.4,178L212.4,178c4,0,7.2-2.4,7.2-6.4v-7.9c0-1.7-1.4-3.1-3.1-3.1h-8.2c-1.7,0-3.1,1.4-3.1,3.1v6.8
						C205.1,174.5,209,178,212.4,178z"/>
					<path class="st20" d="M206.3,167.8L206.3,167.8c0,0,4.4-2.4,2-7.3h-4.1c0,0-1.1-0.3-2,0.9c-0.9,1.2,1.3,6.4,1.3,6.4H206.3z"/>
					<circle class="st29" cx="204.6" cy="168.7" r="2.6"/>
					<path class="st20" d="M207.9,165c0,0-0.5,5.3,0.6,6.9c1.1,1.6,2.3,0.5,6.5,0.1c4.2-0.4,4.6,1.6,4.6,1.6s-0.4,4.8-5.9,4.8
						c-4.3,0-8.6-1.2-7.4-8c1.2-6.8-2.1-9.7-2.1-9.7L207.9,165z"/>
					<path class="st20" d="M203,161.5c-0.1-0.2-1.6-2.2,1.9-4.5c0,0,12.4-7.3,16.7,0.4c3.2,5.7-2.7,5.7-6.1,4.8c-3.9-1-8-0.1-8-0.1
						L203,161.5z"/>
					<path class="st29" d="M206.3,181c0,0-1.6,0.4-3.2,1.4c0,0,1.7,3.4,7.7,2.8c1-0.1,2-0.5,2.7-1.1c0.7-0.6,1.3-1.6,1.4-3
						c0,0-0.4-0.7-2.4-0.6l-6.1,0.2"/>
				</g>
				<g>
					<g>
						<g>
							<polygon class="st10" points="199.4,312.2 197,320.2 202.9,323.1 205.5,314.2 							"/>
							<path class="st10" d="M197,320.2c0,0-2.6,0-5.4,4.8l6.5,5.5h10.6c0,0-1.2-4.1-6.3-3.6l0.6-3.8L197,320.2z"/>
						</g>
						<path class="st10" d="M222.5,231.4c0,0,0.1,24-7.7,49.7l-9.3,35.5h-13.1l11.8-59.2l-1.1-26L222.5,231.4L222.5,231.4z"/>
					</g>
					<g>
						<g>
							<polygon class="st10" points="215.4,315 216.7,323.5 222.5,323.5 221.5,314.2 							"/>
							<path class="st10" d="M216.7,323.5l-2,7h18.6c0,0-2.9-3.7-9.5-3.5l-1.4-3.5L216.7,323.5L216.7,323.5z"/>
						</g>
						<g>
							<path class="st10" d="M195.8,231.4c0,0-1.8,9.1,1.1,28.6s12.9,58.1,12.9,58.1l15.8,1.1l-15.2-87.8L195.8,231.4L195.8,231.4z"
								/>
							<polyline class="st32" points="217.6,272.3 213.1,246.9 216.5,240 							"/>
						</g>
						<line class="st32" x1="200.4" y1="278.1" x2="207.5" y2="309.1"/>
					</g>
				</g>
			</g>
			<line class="st33" x1="167.6" y1="331" x2="250.9" y2="331"/>
		</g>
	</g>
	<g>
		<line class="st7" x1="342.3" y1="333.2" x2="425.6" y2="333.2"/>
		<g>
			<g>
				<g>
					<path class="st10" d="M372.9,225l-16.1,46.4c-1.3,3.6-0.7,7.6,1.5,10.7l22.1,31.6l0.7-23l-10.5-13.7l8.8-17.2L372.9,225z"/>
					<g>
						<polygon class="st10" points="388.1,310 394.8,315 391.7,319.8 384.1,314.6 						"/>
						<path class="st10" d="M394.8,315l6.8,2.2l-10.1,15.3c0,0-1.4-4.4,2.3-9.7l-2.1-3.1L394.8,315z"/>
					</g>
				</g>
				<g>
					<g>
						<polygon class="st10" points="385.5,317.2 385,325.6 379.4,325.6 379.5,316.5 						"/>
						<path class="st10" d="M385,325.6l1.9,6.9h-18.3c0,0,2.8-3.6,9.3-3.4l1.4-3.4L385,325.6L385,325.6z"/>
					</g>
					<path class="st10" d="M372.9,225l4.2,95l11.3,0.4l5.6-66.6c0,0,5.4-24.3-5.6-28.7L372.9,225L372.9,225z"/>
					<line class="st34" x1="374.7" y1="269.4" x2="373.5" y2="237.8"/>
					<line class="st34" x1="375.5" y1="283.2" x2="376.6" y2="308"/>
				</g>
			</g>
			<g>
				<path class="st27" d="M375.5,199.3l-9.3,14.2l-14.5-4.9c-0.6-0.2-1.3-0.3-1.9-0.2l-11.1,0.8c-0.2,0-0.3,0.2-0.2,0.4l0,0
					c0.6,1,1.6,1.7,2.7,1.9c2,0.4,5.3,0.7,9.4-0.5l14.8,10.2c1.5,1.1,3.6,0.9,4.9-0.5l8.9-9L375.5,199.3z"/>
				<path class="st27" d="M388.3,187.1c1.9,2,5.4,6.6,5.7,13.6l-5.6,24.2h-15.5v-15.8c0,0-5-7.6,0-13.6s9.4-11.3,9.4-11.3l3.6,1.3
					C386.8,185.9,387.6,186.4,388.3,187.1z"/>
				<g>
					<path class="st27" d="M385.4,202.8c0,0-3.8,30.5-11.2,50.8h5.9c0,0,14.5-36.9,13.9-52.8L385.4,202.8z"/>
					<g>
						<path class="st27" d="M372.9,258.6c-2.5-1.4-3.3-4.6-1.9-7.1c1.4-2.5,4.6-3.3,7.1-1.9c2.5,1.4,3.3,4.6,1.9,7.1
							C378.6,259.2,375.4,260,372.9,258.6z"/>
					</g>
				</g>
			</g>
			<g>
				<g>
					<path class="st29" d="M372.2,164c0,0-3.5,1.9-3.7,6.6c0,1-0.1,1.9-0.1,2.7l-1.9,2.5c-0.2,0.3-0.1,0.6,0.1,0.8l1.5,1
						c0,1.2,0,2.4,0.2,3.5c0.4,2.9,2.1,3.9,6.9,2s9.9-6.2,9.9-6.2S379.6,163,372.2,164z"/>
				</g>
				<polygon class="st29" points="383.2,178.3 386,186 379.4,191.7 375.3,181.1 				"/>
				<path class="st20" d="M386.7,168.3c-2.1-8.2-11.5-6.5-11.5-6.5s-3,0.1-5.4,2.9l0,0c0,0-2.3,2.5-2.2,5.1l6,0.7c0,0,0,0,0.1,0
					l2.3,4l1.8-2.3l0.7,1.9c0,0,0.7,3.1,4.7,4.2C383.2,178.3,388.7,175.9,386.7,168.3z"/>
				<path class="st29" d="M380.8,174.2c0,1.4-1.2,2.5-2.5,2.4c-1.4,0-2.5-1.2-2.4-2.6c0-1.4,1.2-2.5,2.5-2.4
					C379.8,171.7,380.9,172.8,380.8,174.2z"/>
				<path class="st30" d="M376,182.7c0,0,2.1-1.1,3-2.3l-1.8,5.5L376,182.7z"/>
				<circle class="st31" cx="392.6" cy="173.2" r="7.6"/>
			</g>
		</g>
	</g>
</g>
<g id="DESIGNED_BY_FREEPIK" class="st35">
	<g class="st36">
		<g id="XMLID_29_">
			<g id="XMLID_48_">
				<path id="XMLID_56_" class="st37" d="M35.8,405c-0.4,0.4-0.8,0.9-1.1,1.5l-0.5-0.2c-0.1-0.3-0.3-0.5-0.7-0.5
					c-0.3,0-0.6,0.3-0.5,0.7c0,0.3,0.3,0.6,0.7,0.5c0.1,0,0.1,0,0.2,0l0.5,0.2c-0.3,0.5-0.4,1.1-0.5,1.7l0.8,0.1
					c0.2-1.3,0.8-2.5,1.8-3.5L35.8,405z"/>
				<path id="XMLID_55_" class="st37" d="M41.2,402.7c-0.2,0-0.3,0-0.5,0l-0.1-0.6c0.2-0.1,0.3-0.4,0.3-0.6c0-0.4-0.4-0.7-0.8-0.6
					c-0.4,0-0.7,0.4-0.6,0.8c0,0.3,0.2,0.5,0.4,0.6l0.1,0.6c-0.7,0.1-1.4,0.3-2.1,0.6l0.3,0.7c0.9-0.5,1.9-0.7,3-0.7
					c0.5,0,1,0,1.5,0.2l0.2-0.7C42.3,402.7,41.8,402.7,41.2,402.7z"/>
				<path id="XMLID_54_" class="st37" d="M47.8,405.2c0.3,0,0.6-0.3,0.5-0.7c0-0.3-0.3-0.6-0.7-0.5c-0.3,0-0.5,0.3-0.5,0.6l-0.4,0.4
					c-0.4-0.4-0.9-0.8-1.4-1.1l-0.4,0.6c1.1,0.7,2,1.7,2.6,2.9l0.7-0.3c-0.3-0.5-0.6-1.1-0.9-1.5l0.4-0.4
					C47.7,405.2,47.8,405.2,47.8,405.2z"/>
				<path id="XMLID_53_" class="st37" d="M40.7,412.9c-0.4,0-0.8,0-1.2,0c-0.9,0-1.7-0.1-2.5-0.2c-0.4-0.1-0.8-0.1-1.3-0.3
					c1,1.9,3.1,3.1,5.4,3.1c2.9,0,5.3-1.9,6-4.5c-0.7,0.5-1.5,0.8-2.5,1.1C43.5,412.6,42.1,412.8,40.7,412.9z"/>
				<path id="XMLID_49_" class="st37" d="M41.2,404.2c-3.3,0-6.1,2.7-6.1,5.9c0,0.4,0,0.9,0.1,1.3c0.7,0.5,2.7,0.9,5.3,0.7
					c2.9-0.2,5.3-1,6.7-2.2c0-0.2,0-0.4,0-0.6C46.9,406.4,44.3,404.2,41.2,404.2z M39.1,410.7c-1,0-1.8-0.8-1.8-1.9
					c0-1,0.8-1.9,1.8-1.9c1,0,1.8,0.8,1.8,1.9C40.9,409.9,40.1,410.7,39.1,410.7z M43.8,409.8c-0.8,0-1.4-0.6-1.4-1.4
					s0.6-1.4,1.4-1.4s1.4,0.6,1.4,1.4S44.6,409.8,43.8,409.8z"/>
			</g>
			<path id="XMLID_46_" class="st37" d="M57.2,406.1c-0.3-0.1-0.8-0.3-1.4-0.2c-0.5,0.1-0.8,0.3-0.8,1v0.9h2.2v1.7H55v5.5h-1.9v-5.5
				h-1.3v-1.7h1.3v-0.9c0-1.7,0.9-2.8,2.6-2.8c0.6,0,1.2,0.1,1.6,0.3L57.2,406.1z"/>
			<path id="XMLID_44_" class="st37" d="M61.9,409.4c-0.2,0-0.4,0-0.5,0c-0.9,0-1.5,0.5-1.5,1.6v3.9H58v-7.2h1.9v0.8
				c0.5-0.7,1.1-1,2-1c0.4,0,0.8,0.1,1.1,0.3L61.9,409.4z"/>
			<path id="XMLID_41_" class="st37" d="M69.6,411.3c0,0.2,0,0.5,0,0.6h-5.1c0.2,1,0.9,1.5,1.8,1.5c0.6,0,1.3-0.3,1.8-0.7l1.1,1.2
				c-0.8,0.8-1.8,1.1-3.1,1.1c-2.2,0-3.7-1.5-3.7-3.8c0-2.3,1.5-3.8,3.6-3.8C68.2,407.5,69.6,409,69.6,411.3z M64.5,410.6h3.2
				c-0.2-0.9-0.7-1.4-1.6-1.4C65.2,409.2,64.7,409.7,64.5,410.6z"/>
			<path id="XMLID_38_" class="st37" d="M77.3,411.3c0,0.2,0,0.5,0,0.6h-5.1c0.2,1,0.9,1.5,1.8,1.5c0.6,0,1.3-0.3,1.8-0.7l1.1,1.2
				c-0.8,0.8-1.8,1.1-3.1,1.1c-2.2,0-3.7-1.5-3.7-3.8c0-2.3,1.5-3.8,3.6-3.8C75.8,407.5,77.3,409,77.3,411.3z M72.2,410.6h3.2
				c-0.2-0.9-0.7-1.4-1.6-1.4C72.8,409.2,72.3,409.7,72.2,410.6z"/>
			<path id="XMLID_35_" class="st37" d="M85.6,411.3c0,2.1-1.5,3.8-3.5,3.8c-1,0-1.6-0.4-2.1-0.9v3.7h-1.9v-10.1H80v0.8
				c0.5-0.6,1.2-1,2.1-1C84.1,407.5,85.6,409.1,85.6,411.3z M79.9,411.3c0,1.1,0.8,2,1.8,2c1.1,0,1.8-0.9,1.8-2s-0.7-2-1.8-2
				C80.7,409.3,79.9,410.1,79.9,411.3z"/>
			<path id="XMLID_32_" class="st37" d="M88.7,405.4c0,0.7-0.5,1.2-1.2,1.2s-1.2-0.5-1.2-1.2s0.5-1.2,1.2-1.2
				C88.2,404.1,88.7,404.6,88.7,405.4z M88.4,414.9h-1.9v-7.2h1.9V414.9z"/>
			<path id="XMLID_30_" class="st37" d="M91.7,410.3l2.7-2.5h2.4l-3.5,3.4l3.5,3.8h-2.4l-2.7-2.9v2.9h-1.9v-10.7h1.9L91.7,410.3
				L91.7,410.3z"/>
		</g>
		<g>
			<path class="st37" d="M-39.9,414.8v-1c-0.5,0.7-1.4,1.2-2.4,1.2c-1.8,0-3.2-1.4-3.2-3.7c0-2.3,1.3-3.7,3.2-3.7
				c1,0,1.8,0.5,2.4,1.3V405h1.1v9.8L-39.9,414.8L-39.9,414.8z M-39.9,412.9v-3.2c-0.4-0.6-1.2-1.1-2.1-1.1c-1.4,0-2.3,1.2-2.3,2.7
				c0,1.6,0.8,2.7,2.3,2.7C-41.2,414-40.3,413.5-39.9,412.9z"/>
			<path class="st37" d="M-37.4,411.3c0-2,1.5-3.7,3.5-3.7c2.1,0,3.4,1.7,3.4,3.8v0.3h-5.7c0.1,1.3,1,2.5,2.5,2.5
				c0.8,0,1.6-0.3,2.2-0.9l0.5,0.7c-0.7,0.7-1.6,1.1-2.8,1.1C-35.9,415-37.4,413.5-37.4,411.3z M-34,408.5c-1.5,0-2.3,1.3-2.3,2.4
				h4.6C-31.6,409.8-32.3,408.5-34,408.5z"/>
			<path class="st37" d="M-29.8,413.9l0.6-0.8c0.5,0.5,1.4,1,2.3,1c1.1,0,1.7-0.5,1.7-1.2c0-1.7-4.4-0.7-4.4-3.3c0-1.1,1-2,2.6-2
				c1.2,0,2,0.5,2.6,1l-0.5,0.8c-0.4-0.5-1.2-0.9-2.1-0.9c-1,0-1.6,0.5-1.6,1.1c0,1.5,4.4,0.5,4.4,3.3c0,1.2-1,2.1-2.8,2.1
				C-28,415-29,414.6-29.8,413.9z"/>
			<path class="st37" d="M-22.9,406c0-0.4,0.3-0.8,0.7-0.8c0.4,0,0.8,0.3,0.8,0.8s-0.3,0.7-0.8,0.7C-22.5,406.7-22.9,406.4-22.9,406
				z M-22.7,414.8v-7.1h1.1v7.1H-22.7z"/>
			<path class="st37" d="M-19.8,416.6l0.6-0.8c0.6,0.7,1.3,1,2.3,1c1.2,0,2.3-0.6,2.3-2.1v-1c-0.5,0.7-1.4,1.3-2.4,1.3
				c-1.9,0-3.1-1.4-3.1-3.7c0-2.3,1.3-3.7,3.1-3.7c1,0,1.8,0.5,2.4,1.3v-1.1h1.1v6.9c0,2.3-1.6,3.1-3.4,3.1
				C-18.1,417.7-18.9,417.4-19.8,416.6z M-14.6,412.8v-3.1c-0.4-0.6-1.2-1.1-2.1-1.1c-1.4,0-2.3,1.1-2.3,2.7c0,1.5,0.9,2.7,2.3,2.7
				C-15.9,413.9-15,413.4-14.6,412.8z"/>
			<path class="st37" d="M-6.9,414.8v-4.6c0-1.2-0.6-1.6-1.6-1.6c-0.9,0-1.7,0.5-2.1,1.1v5.2h-1.1v-7.1h1.1v1
				c0.5-0.6,1.5-1.2,2.5-1.2c1.5,0,2.3,0.8,2.3,2.3v5L-6.9,414.8L-6.9,414.8z"/>
			<path class="st37" d="M-4.4,411.3c0-2,1.5-3.7,3.5-3.7c2.1,0,3.4,1.7,3.4,3.8v0.3h-5.7c0.1,1.3,1,2.5,2.5,2.5
				c0.8,0,1.6-0.3,2.2-0.9l0.5,0.7c-0.7,0.7-1.7,1.1-2.8,1.1C-2.9,415-4.4,413.5-4.4,411.3z M-0.9,408.5c-1.5,0-2.3,1.3-2.3,2.4h4.6
				C1.4,409.8,0.7,408.5-0.9,408.5z"/>
			<path class="st37" d="M9,414.8v-1c-0.5,0.7-1.4,1.2-2.4,1.2c-1.8,0-3.2-1.4-3.2-3.7c0-2.3,1.3-3.7,3.2-3.7c0.9,0,1.8,0.5,2.4,1.3
				V405h1.1v9.8L9,414.8L9,414.8z M9,412.9v-3.2c-0.4-0.6-1.3-1.1-2.1-1.1c-1.4,0-2.3,1.2-2.3,2.7c0,1.6,0.8,2.7,2.3,2.7
				C7.8,414,8.6,413.5,9,412.9z"/>
			<path class="st37" d="M15.3,414.8V405h1.1v3.8c0.6-0.8,1.4-1.3,2.4-1.3c1.9,0,3.1,1.5,3.1,3.7c0,2.3-1.3,3.7-3.1,3.7
				c-1,0-1.9-0.5-2.4-1.2v1L15.3,414.8L15.3,414.8z M18.5,414c1.4,0,2.3-1.2,2.3-2.7c0-1.6-0.9-2.7-2.3-2.7c-0.9,0-1.7,0.5-2.1,1.1
				v3.2C16.8,413.5,17.7,414,18.5,414z"/>
			<path class="st37" d="M23.2,416.6c0.2,0.1,0.4,0.1,0.6,0.1c0.5,0,0.8-0.2,1-0.8l0.5-1.1l-3-7.1h1.2l2.4,5.8l2.3-5.8h1.2l-3.5,8.5
				c-0.4,1-1.1,1.4-2.1,1.4c-0.2,0-0.6,0-0.8-0.1L23.2,416.6z"/>
		</g>
	</g>
</g>
</svg>
